<svg width="544" height="91" viewBox="0 0 544 91" fill="none" xmlns="http://www.w3.org/2000/svg">
<path d="M336.281 0.46875C335.719 1.53125 335.031 2.375 334.219 3C333.469 3.5625 332.656 4.15625 331.781 4.78125C331.031 5.46875 330.188 6.09375 329.25 6.65625C328.312 7.15625 327.5 7.75 326.812 8.4375C325.5 9.875 324.344 11.6562 323.344 13.7812C322.406 15.8438 321.5 17.9062 320.625 19.9688C320.375 20.4688 320.031 20.9688 319.594 21.4688C319.219 21.9688 318.906 22.5 318.656 23.0625C317.969 24.75 317.375 26.5312 316.875 28.4062C316.438 30.2812 316 32.1875 315.562 34.125C315.188 36 314.781 37.9062 314.344 39.8438C313.906 41.7812 313.375 43.6562 312.75 45.4688C312.438 45.7812 312.062 46.0625 311.625 46.3125C311.188 46.5 310.875 46.8125 310.688 47.25C310.75 47.5625 310.875 47.875 311.062 48.1875C311.312 48.4375 311.469 48.75 311.531 49.125C311.594 49.625 311.5 50.125 311.25 50.625C311.062 51.125 310.906 51.6875 310.781 52.3125C310.469 54.125 309.969 56.125 309.281 58.3125C308.656 60.4375 307.844 62.125 306.844 63.375C306.281 65.25 305.75 67.1562 305.25 69.0938C304.812 71.0312 304.062 72.7188 303 74.1562C302.438 74.3438 301.906 74.5938 301.406 74.9062C300.969 75.2188 300.406 75.375 299.719 75.375C299.406 75.375 299.062 75.2812 298.688 75.0938C298.375 74.9062 298 74.75 297.562 74.625C297.062 74.5 296.5 74.375 295.875 74.25C295.25 74.1875 294.656 74.0625 294.094 73.875C293.531 73.75 292.969 73.5938 292.406 73.4062C291.906 73.2188 291.406 73.125 290.906 73.125C290.344 73.125 289.594 73.125 288.656 73.125C287.719 73.125 287 73.0312 286.5 72.8438C286.312 72.2188 286.031 71.6562 285.656 71.1562C285.344 70.5938 285.062 70 284.812 69.375C284.562 68.8125 284.281 68.1875 283.969 67.5C283.656 66.8125 283.469 66.125 283.406 65.4375C283.344 65.125 283.375 64.7812 283.5 64.4062C283.625 64.0312 283.656 63.6875 283.594 63.375C283.469 62.875 283.219 62.375 282.844 61.875C282.469 61.375 282.219 60.875 282.094 60.375C282.031 60.0625 282.031 59.75 282.094 59.4375C282.156 59.0625 282.156 58.7188 282.094 58.4062C282.031 57.9688 281.875 57.625 281.625 57.375C281.438 57.125 281.281 56.8125 281.156 56.4375C281.031 56.25 281 56.0625 281.062 55.875C281.125 55.625 281.125 55.4062 281.062 55.2188C280.938 54.7812 280.719 54.375 280.406 54C280.156 53.5625 279.969 53.1562 279.844 52.7812C279.594 51.7812 279.469 50.75 279.469 49.6875C279.531 48.5625 279.5 47.4688 279.375 46.4062C279.25 45.5312 279.031 44.6875 278.719 43.875C278.469 43 278.344 42.0938 278.344 41.1562C278.344 40.6562 278.438 40.2188 278.625 39.8438C278.812 39.4688 278.906 39.0625 278.906 38.625C278.969 38.125 278.906 37.6875 278.719 37.3125C278.531 36.9375 278.406 36.5 278.344 36C278.156 35.5625 277.844 35.25 277.406 35.0625C277.031 34.875 276.656 34.6562 276.281 34.4062C275.781 32.5938 275.094 30.5312 274.219 28.2188C273.344 25.8438 272.656 23.7188 272.156 21.8438C272.156 21.7188 272.094 21.9062 271.969 22.4062C271.906 22.8438 271.781 23.4062 271.594 24.0938C271.469 24.7812 271.281 25.5 271.031 26.25C270.781 27 270.469 27.5938 270.094 28.0312C270.594 28.9062 270.625 29.9688 270.188 31.2188C269.75 32.4688 269.375 33.7188 269.062 34.9688C268.625 36.7812 268.219 38.625 267.844 40.5C267.469 42.3125 266.969 44.125 266.344 45.9375C266.219 46.375 266.062 46.75 265.875 47.0625C265.688 47.375 265.531 47.7188 265.406 48.0938C265.219 48.7188 265.125 49.375 265.125 50.0625C265.125 50.75 265.062 51.4375 264.938 52.125C264.812 52.8125 264.688 53.4688 264.562 54.0938C264.5 54.7188 264.406 55.3438 264.281 55.9688C264.094 57.0938 263.875 58.3438 263.625 59.7188C263.438 61.0938 263.156 62.4375 262.781 63.75C262.469 65 262.031 66.1562 261.469 67.2188C260.906 68.2188 260.188 68.9375 259.312 69.375C258.625 69.8125 258 69.9688 257.438 69.8438C256.938 69.7188 256.406 69.4688 255.844 69.0938C255.531 69.1562 255.344 69.375 255.281 69.75C255.219 70.0625 255.062 70.2812 254.812 70.4062C253.938 70.3438 253.219 70.5 252.656 70.875C252.094 71.1875 251.469 71.4375 250.781 71.625C250.594 71.6875 250.375 71.7188 250.125 71.7188C249.938 71.6562 249.75 71.6875 249.562 71.8125C249 72 248.5 72.25 248.062 72.5625C247.625 72.875 247.188 73.1562 246.75 73.4062C246.375 73.7188 245.969 73.9688 245.531 74.1562C245.094 74.3438 244.625 74.375 244.125 74.25C243.375 74.0625 242.844 73.6562 242.531 73.0312C242.156 72.4062 241.719 71.8438 241.219 71.3438C241.344 70.4688 241.562 69.5 241.875 68.4375C242.125 67.375 242.438 66.3125 242.812 65.25C243.125 64.125 243.469 63.0625 243.844 62.0625C244.219 61 244.562 60.0625 244.875 59.25C245.062 58.5625 245.281 57.9062 245.531 57.2812C245.719 56.6562 245.906 56 246.094 55.3125C246.281 54.6875 246.531 54.0938 246.844 53.5312C247.156 52.9062 247.375 52.2812 247.5 51.6562C247.625 50.9688 247.656 50.3125 247.594 49.6875C247.531 49 247.531 48.3125 247.594 47.625C247.719 47 247.938 46.3125 248.25 45.5625C248.562 44.8125 248.812 44.0938 249 43.4062C249.625 41.2812 250.281 39.25 250.969 37.3125C251.656 35.3125 252.625 33.5625 253.875 32.0625C253.875 31.1875 254 30.375 254.25 29.625C254.5 28.875 254.75 28.1562 255 27.4688C255.25 26.7812 255.406 26.125 255.469 25.5C255.531 24.8125 255.375 24.0938 255 23.3438C255.25 22.2188 255.562 21.1562 255.938 20.1562C256.375 19.0938 256.719 17.9688 256.969 16.7812C257.031 16.4688 257.031 16.125 256.969 15.75C256.969 15.375 257.031 15.0312 257.156 14.7188C257.281 14.1562 257.5 13.5625 257.812 12.9375C258.188 12.25 258.562 11.5938 258.938 10.9688C259.375 10.2812 259.75 9.625 260.062 9C260.438 8.375 260.688 7.8125 260.812 7.3125C261.5 7.1875 262.156 7.0625 262.781 6.9375C263.406 6.75 264.156 6.65625 265.031 6.65625C265.406 6.65625 265.781 6.71875 266.156 6.84375C266.531 6.90625 266.906 6.90625 267.281 6.84375C267.969 6.71875 268.469 6.40625 268.781 5.90625C269.156 5.40625 269.594 5.03125 270.094 4.78125C270.969 4.65625 271.812 4.59375 272.625 4.59375C273.5 4.53125 274.344 4.375 275.156 4.125C275.531 4 276 3.84375 276.562 3.65625C277.188 3.46875 277.688 3.375 278.062 3.375C278.812 3.375 279.406 3.65625 279.844 4.21875C280.344 4.78125 280.75 5.46875 281.062 6.28125C281.375 7.03125 281.656 7.8125 281.906 8.625C282.156 9.375 282.5 9.96875 282.938 10.4062C282.938 12.2812 283.031 14 283.219 15.5625C283.406 17.0625 283.562 18.8125 283.688 20.8125C283.938 22.9375 284.281 24.9062 284.719 26.7188C285.156 28.4688 285.625 30.2812 286.125 32.1562C286.312 32.9688 286.438 33.7812 286.5 34.5938C286.625 35.4062 286.844 36.1562 287.156 36.8438C287.656 38.0938 288.156 39.25 288.656 40.3125C289.219 41.375 289.562 42.5312 289.688 43.7812C289.875 45.2188 289.938 46.5938 289.875 47.9062C289.812 49.1562 289.938 50.4062 290.25 51.6562C290.562 52.6562 290.906 53.4688 291.281 54.0938C291.656 54.7188 292.188 55.4375 292.875 56.25C293.562 55.375 293.969 54.4375 294.094 53.4375C294.219 52.4375 294.344 51.4375 294.469 50.4375C294.656 49.375 294.906 48.375 295.219 47.4375C295.531 46.4375 295.844 45.4062 296.156 44.3438C296.469 42.8438 296.875 41.2812 297.375 39.6562C297.938 38.0312 298.5 36.5625 299.062 35.25C299.188 34.875 299.406 34.4688 299.719 34.0312C300.031 33.5938 300.312 33.1562 300.562 32.7188C300.938 32.0312 301 31.25 300.75 30.375C300.562 29.4375 300.531 28.5312 300.656 27.6562C300.781 27.0312 300.938 26.375 301.125 25.6875C301.375 24.9375 301.594 24.1875 301.781 23.4375C302.219 21.625 302.469 19.6875 302.531 17.625C302.656 15.5625 302.938 13.7812 303.375 12.2812C303.562 11.7812 303.812 11.0938 304.125 10.2188C304.438 9.34375 304.562 8.59375 304.5 7.96875C304.5 7.46875 304.312 7.09375 303.938 6.84375C303.625 6.59375 303.469 6.21875 303.469 5.71875C303.469 5.21875 303.688 4.78125 304.125 4.40625C304.625 4.03125 305.188 3.71875 305.812 3.46875C306.5 3.21875 307.188 3.03125 307.875 2.90625C308.625 2.78125 309.25 2.71875 309.75 2.71875C310.312 2.71875 310.812 2.78125 311.25 2.90625C311.75 3.03125 312.219 3.15625 312.656 3.28125C313.094 3.40625 313.562 3.53125 314.062 3.65625C314.625 3.71875 315.25 3.71875 315.938 3.65625C317 3.53125 318.188 3.40625 319.5 3.28125C320.812 3.09375 322.094 2.96875 323.344 2.90625C323.969 2.84375 324.562 2.8125 325.125 2.8125C325.75 2.75 326.281 2.65625 326.719 2.53125C327.344 2.34375 327.969 2.15625 328.594 1.96875C329.219 1.71875 329.969 1.53125 330.844 1.40625C331.594 1.28125 332.312 1.125 333 0.9375C333.75 0.6875 334.375 0.46875 334.875 0.28125C335.062 0.15625 335.25 0.09375 335.438 0.09375C335.688 0.03125 335.969 0.15625 336.281 0.46875Z" fill="#D86AFF"/>
<path d="M322.312 67.2188C322.438 65.7812 322.906 64.5 323.719 63.375C324.594 62.1875 325.25 60.9688 325.688 59.7188C325.938 58.9062 326.094 58.0625 326.156 57.1875C326.281 56.25 326.344 55.3438 326.344 54.4688C326.406 53.5312 326.5 52.625 326.625 51.75C326.75 50.8125 326.969 49.9062 327.281 49.0312C326.969 48.4688 326.844 47.8438 326.906 47.1562C326.969 46.4688 327 45.75 327 45C327.312 44.5625 327.562 44.0625 327.75 43.5C327.938 42.9375 328.375 42.5625 329.062 42.375C329.688 41 330 39.5938 330 38.1562C330 36.6562 330.156 35.125 330.469 33.5625C330.531 33.25 330.656 32.9688 330.844 32.7188C331.031 32.4688 331.188 32.1875 331.312 31.875C331.75 30.5625 331.969 29.1875 331.969 27.75C331.969 26.25 332.219 24.8438 332.719 23.5312C333.094 23.4062 333.562 23.2188 334.125 22.9688C334.688 22.6562 335.25 22.375 335.812 22.125C336.438 21.8125 337.031 21.5625 337.594 21.375C338.156 21.1875 338.656 21.125 339.094 21.1875C339.406 21.3125 339.719 21.5 340.031 21.75C340.344 21.9375 340.719 22.1875 341.156 22.5C341.469 22.6875 341.75 22.9062 342 23.1562C342.312 23.4062 342.625 23.625 342.938 23.8125C343.188 23.9375 343.5 24.0625 343.875 24.1875C344.312 24.25 344.594 24.3438 344.719 24.4688C344.781 24.5312 344.969 24.75 345.281 25.125C345.656 25.5 346 25.9062 346.312 26.3438C346.688 26.7812 347.031 27.2188 347.344 27.6562C347.656 28.0312 347.844 28.2812 347.906 28.4062C347.969 28.7812 347.938 29.2188 347.812 29.7188C347.688 30.1562 347.5 30.625 347.25 31.125C347.062 31.5625 346.844 32.0312 346.594 32.5312C346.406 32.9688 346.25 33.375 346.125 33.75C345.938 34.4375 345.75 35.125 345.562 35.8125C345.375 36.4375 345.125 37.0938 344.812 37.7812C344.5 38.5938 344.156 39.5312 343.781 40.5938C343.406 41.6562 343.156 42.7812 343.031 43.9688C342.906 44.8438 342.562 45.5 342 45.9375C341.5 46.375 341.156 47 340.969 47.8125C340.844 48.375 340.781 48.9688 340.781 49.5938C340.781 50.2188 340.781 50.8438 340.781 51.4688C340.844 52.0312 340.844 52.5938 340.781 53.1562C340.781 53.7188 340.656 54.25 340.406 54.75C340.219 55.0625 339.938 55.3125 339.562 55.5C339.188 55.625 338.875 55.8438 338.625 56.1562C338.25 56.7812 337.906 57.5625 337.594 58.5C337.344 59.4375 337.125 60.4375 336.938 61.5C336.75 62.5 336.656 63.5312 336.656 64.5938C336.719 65.5938 336.906 66.5 337.219 67.3125C336.906 68.3125 336.344 69.1875 335.531 69.9375C334.781 70.6875 333.875 71.2812 332.812 71.7188C331.75 72.0938 330.594 72.2812 329.344 72.2812C328.156 72.3438 326.938 72.1562 325.688 71.7188C325.188 70.9688 324.594 70.2812 323.906 69.6562C323.219 68.9688 322.688 68.1562 322.312 67.2188Z" fill="#D86AFF"/>
<path d="M352.875 70.3125C351.562 70.75 350.406 70.5938 349.406 69.8438C348.406 69.0312 347.781 68.0938 347.531 67.0312C347.406 66.5312 347.406 65.7812 347.531 64.7812C347.656 63.7188 347.844 62.875 348.094 62.25C348.344 61.5625 348.875 60.75 349.688 59.8125C350.5 58.875 351.125 57.8125 351.562 56.625C352 55.5 352.344 54.4375 352.594 53.4375C352.906 52.375 353.344 51.5312 353.906 50.9062C354.344 50.4688 354.812 50.0938 355.312 49.7812C355.812 49.4062 356.094 48.9375 356.156 48.375C356.156 47.875 356 47.4375 355.688 47.0625C355.438 46.6875 355.344 46.1875 355.406 45.5625C355.406 45 355.562 44.2812 355.875 43.4062C356.25 42.5312 356.594 41.75 356.906 41.0625C357.594 39.5625 358.125 38.0312 358.5 36.4688C358.625 36.0312 358.719 35.5312 358.781 34.9688C358.906 34.3438 359.031 33.875 359.156 33.5625C359.344 33.3125 359.531 32.9062 359.719 32.3438C359.969 31.7812 360.25 31.2188 360.562 30.6562C360.875 30.0938 361.219 29.5938 361.594 29.1562C361.969 28.6562 362.375 28.3125 362.812 28.125C363.312 27.9375 363.844 27.8125 364.406 27.75C365.031 27.625 365.594 27.4375 366.094 27.1875C366.656 27 367 26.7812 367.125 26.5312C367.25 26.2812 367.562 26.0312 368.062 25.7812C368.438 25.6562 368.812 25.5938 369.188 25.5938C369.625 25.5938 370.062 25.5312 370.5 25.4062C371 25.2188 371.531 24.9375 372.094 24.5625C372.656 24.1875 373.312 24.2188 374.062 24.6562C374.375 24.8438 374.688 25.4062 375 26.3438C375.312 27.2812 375.625 28.1562 375.938 28.9688C376.062 29.4062 376.219 29.9375 376.406 30.5625C376.656 31.1875 376.875 31.8438 377.062 32.5312C377.25 33.1562 377.438 33.75 377.625 34.3125C377.812 34.8125 377.969 35.1875 378.094 35.4375C378.406 36.0625 378.625 36.7188 378.75 37.4062C378.875 38.0938 379.062 38.7188 379.312 39.2812C379.625 39.9062 379.938 40.5 380.25 41.0625C380.562 41.625 380.875 42.25 381.188 42.9375C381.5 43.625 381.781 44.2812 382.031 44.9062C382.281 45.5312 382.594 46.1875 382.969 46.875C383.219 47.375 383.594 47.8438 384.094 48.2812C384.594 48.6562 384.906 49.0938 385.031 49.5938C385.219 50.0938 385.219 50.6562 385.031 51.2812C384.844 51.8438 384.812 52.375 384.938 52.875C385.125 53.5625 385.531 54.125 386.156 54.5625C386.781 55 387.344 55.4688 387.844 55.9688C388.156 56.3438 388.344 56.7188 388.406 57.0938C388.469 57.4688 388.75 57.7188 389.25 57.8438C389.375 56.6562 389.5 55.625 389.625 54.75C389.812 53.875 390 53.0312 390.188 52.2188C390.375 51.3438 390.562 50.4688 390.75 49.5938C390.938 48.6562 391.094 47.625 391.219 46.5C391.844 45.6875 392.406 44.9375 392.906 44.25C393.406 43.5 393.625 42.5312 393.562 41.3438C393.5 40.9688 393.375 40.5938 393.188 40.2188C393.062 39.8438 393.031 39.4375 393.094 39C393.156 38.375 393.281 37.8125 393.469 37.3125C393.656 36.8125 393.906 36.1875 394.219 35.4375C394.406 34.9375 394.562 34.4375 394.688 33.9375C394.812 33.375 394.969 32.7812 395.156 32.1562C395.344 31.6562 395.5 31.25 395.625 30.9375C395.812 30.625 396 30.3438 396.188 30.0938C396.375 29.7812 396.531 29.4688 396.656 29.1562C396.781 28.7812 396.906 28.25 397.031 27.5625C397.219 26.5 397.312 25.5938 397.312 24.8438C397.312 24.0938 397.469 23.3438 397.781 22.5938C398.281 21.4688 399.062 20.5312 400.125 19.7812C401.25 18.9688 402.312 18.3125 403.312 17.8125C405.062 17.875 406.5 18.3438 407.625 19.2188C408.75 20.0312 409.469 21.0312 409.781 22.2188C410.219 23.3438 410.188 24.2812 409.688 25.0312C409.188 25.7188 408.688 26.5 408.188 27.375C407.875 27.9375 407.625 28.4688 407.438 28.9688C407.312 29.4688 407.188 29.9688 407.062 30.4688C407 30.9062 406.906 31.375 406.781 31.875C406.719 32.375 406.562 32.9375 406.312 33.5625C406.125 34.1875 405.844 34.7188 405.469 35.1562C405.094 35.5312 404.844 35.9375 404.719 36.375C404.906 37.25 404.969 37.9688 404.906 38.5312C404.906 39.0938 404.812 39.625 404.625 40.125C404.5 40.5625 404.344 41.0312 404.156 41.5312C404.031 41.9688 403.906 42.4688 403.781 43.0312C403.656 43.4688 403.594 43.9062 403.594 44.3438C403.594 44.7812 403.531 45.1875 403.406 45.5625C403.219 46.3125 402.969 47 402.656 47.625C402.344 48.25 402.031 48.8438 401.719 49.4062C401.281 50.3438 400.781 51.2188 400.219 52.0312C399.719 52.8438 399.406 53.9375 399.281 55.3125C399.219 56.1875 399.156 56.9688 399.094 57.6562C399.094 58.2812 399.062 58.875 399 59.4375C399 60 398.906 60.5938 398.719 61.2188C398.594 61.8438 398.406 62.5938 398.156 63.4688C398.031 63.9688 397.844 64.4688 397.594 64.9688C397.406 65.4062 397.25 65.875 397.125 66.375C396.75 68 396.219 69.25 395.531 70.125C394.844 70.9375 393.812 71.7812 392.438 72.6562C391.688 72.8438 390.938 73.0312 390.188 73.2188C389.438 73.4062 388.688 73.5 387.938 73.5C387.25 73.5 386.594 73.375 385.969 73.125C385.344 72.9375 384.812 72.5 384.375 71.8125C384.062 71.3125 383.719 70.5938 383.344 69.6562C383.031 68.6562 382.656 67.6875 382.219 66.75C382.031 66.3125 381.812 65.9062 381.562 65.5312C381.375 65.0938 381.219 64.6562 381.094 64.2188C380.781 63.5312 380.562 62.9375 380.438 62.4375C380.375 61.9375 380.188 61.25 379.875 60.375C379.438 59 378.75 57.9688 377.812 57.2812C376.875 56.5938 376.062 55.8438 375.375 55.0312C375.312 54.4062 375.219 53.8438 375.094 53.3438C374.969 52.8438 374.688 52.4375 374.25 52.125C374.125 52 373.969 51.9375 373.781 51.9375C373.594 51.875 373.438 51.75 373.312 51.5625C373.125 51.3125 373 51.0312 372.938 50.7188C372.875 50.3438 372.75 50.0625 372.562 49.875C372.438 49.75 372.25 49.4688 372 49.0312C371.75 48.5938 371.5 48.1562 371.25 47.7188C371.062 47.2812 370.844 46.9062 370.594 46.5938C370.344 46.2188 370.156 46.0625 370.031 46.125C369.719 46.125 369.406 46.375 369.094 46.875C368.844 47.375 368.562 47.9375 368.25 48.5625C368 49.1875 367.75 49.8125 367.5 50.4375C367.25 51 367.031 51.4062 366.844 51.6562C366.531 52.0938 366.281 52.75 366.094 53.625C365.969 54.4375 365.781 55.0938 365.531 55.5938C365.094 56.3438 364.688 57.0938 364.312 57.8438C364 58.5938 364.094 59.4062 364.594 60.2812C364.594 60.7188 364.469 61.0938 364.219 61.4062C364.031 61.6562 364 62.0938 364.125 62.7188C363.75 63.4062 363.375 64.1875 363 65.0625C362.688 65.9375 362.344 66.9062 361.969 67.9688C361.781 68.5938 361.625 69.25 361.5 69.9375C361.375 70.5625 361.219 71.1875 361.031 71.8125C360.844 72.375 360.562 72.875 360.188 73.3125C359.875 73.75 359.438 74 358.875 74.0625C358.125 74.1875 357.5 74.0938 357 73.7812C356.5 73.4688 356.031 73.0938 355.594 72.6562C355.156 72.2812 354.719 71.875 354.281 71.4375C353.844 70.9375 353.375 70.5625 352.875 70.3125Z" fill="#D86AFF"/>
<path d="M439.781 19.875C439.094 22.5 438.344 24.9375 437.531 27.1875C436.781 29.4375 436.062 31.875 435.375 34.5C434.812 34.6875 434.406 35.0312 434.156 35.5312C433.969 36.0312 433.812 36.5938 433.688 37.2188C433.562 37.8438 433.469 38.5312 433.406 39.2812C433.344 39.9688 433.219 40.625 433.031 41.25C432.906 41.75 432.688 42.2188 432.375 42.6562C432.062 43.0312 431.844 43.4375 431.719 43.875C431.531 44.625 431.438 45.4688 431.438 46.4062C431.438 47.2812 431.375 48.125 431.25 48.9375C430.875 50.5625 430.25 52.1875 429.375 53.8125C428.5 55.375 427.781 57.0625 427.219 58.875C426.719 60.125 426.312 61.4062 426 62.7188C425.75 63.9688 425.375 65.1562 424.875 66.2812C424.562 67.0312 424.156 67.7812 423.656 68.5312C423.219 69.2812 422.781 70.0938 422.344 70.9688C421.906 71.7188 421.5 72.5 421.125 73.3125C420.75 74.125 420.312 74.875 419.812 75.5625C419.5 76 419.062 76.4375 418.5 76.875C418 77.3125 417.531 77.8438 417.094 78.4688C416.094 79.8438 415.062 81 414 81.9375C413 82.875 411.594 83.6875 409.781 84.375C409.281 85.8125 408.375 86.8125 407.062 87.375C405.75 87.9375 404.188 88.4688 402.375 88.9688C401.562 89.1562 400.656 89.3438 399.656 89.5312C398.656 89.7812 397.75 89.9688 396.938 90.0938C396.375 90.0938 395.781 90 395.156 89.8125C394.531 89.625 393.875 89.4688 393.188 89.3438C391.5 89.0938 389.938 88.9375 388.5 88.875C387 88.8125 385.656 88.4688 384.469 87.8438C384.031 87.5312 383.5 87.0625 382.875 86.4375C382.25 85.875 382 85.2812 382.125 84.6562C382.188 84.2188 382.438 83.9375 382.875 83.8125C383.25 83.75 383.688 83.75 384.188 83.8125C384.688 83.9375 385.188 84.0938 385.688 84.2812C386.188 84.5312 386.562 84.75 386.812 84.9375C388.625 85.25 390.312 85.25 391.875 84.9375C393.375 84.625 394.75 84.125 396 83.4375C397.75 82.4375 399.406 81.4062 400.969 80.3438C402.469 79.3438 403.938 78.2188 405.375 76.9688C405.688 76.0938 406.125 75.3438 406.688 74.7188C407.25 74.0938 407.844 73.4688 408.469 72.8438C409.031 72.2812 409.562 71.6562 410.062 70.9688C410.562 70.2812 410.938 69.4688 411.188 68.5312C410.938 67.6562 411.062 66.875 411.562 66.1875C412.125 65.5 412.531 64.8125 412.781 64.125C412.906 63.625 412.938 63.125 412.875 62.625C412.812 62.0625 412.781 61.4688 412.781 60.8438C412.844 59.9688 413.062 58.9688 413.438 57.8438C413.875 56.7188 414.156 55.5938 414.281 54.4688C414.344 53.9062 414.375 53.4062 414.375 52.9688C414.375 52.5312 414.469 52.125 414.656 51.75C414.969 51.1875 415.344 50.5938 415.781 49.9688C416.281 49.3438 416.719 48.6875 417.094 48C417.469 47.3125 417.844 46.5625 418.219 45.75C418.656 44.875 418.906 44.1875 418.969 43.6875C418.969 43 418.781 42.3125 418.406 41.625C418.031 40.875 417.844 40.125 417.844 39.375C417.906 39.0625 417.969 38.6875 418.031 38.25C418.094 37.8125 418.188 37.4375 418.312 37.125C418.625 36 419.031 34.9688 419.531 34.0312C420.031 33.0312 420.438 31.9375 420.75 30.75C421 29.875 421.156 29 421.219 28.125C421.281 27.25 421.562 26.375 422.062 25.5C422.938 24.875 423.844 24.3438 424.781 23.9062C425.781 23.4062 426.812 22.9375 427.875 22.5C428.25 22.4375 428.469 22.5312 428.531 22.7812C428.656 22.9688 428.812 23.125 429 23.25C429.5 22.8125 429.938 22.1562 430.312 21.2812C430.75 20.3438 431.406 19.6562 432.281 19.2188C432.469 19.0938 432.719 19.0625 433.031 19.125C433.344 19.125 433.656 19.0625 433.969 18.9375C434.844 18.75 435.469 18.4688 435.844 18.0938C436.219 17.6562 436.812 17.5312 437.625 17.7188C438.125 17.8438 438.531 18.1562 438.844 18.6562C439.156 19.0938 439.469 19.5 439.781 19.875Z" fill="#D86AFF"/>
<path d="M456.938 29.25C458.125 28.4375 459.156 27.5 460.031 26.4375C460.906 25.375 461.75 24.3125 462.562 23.25C463.062 23.3125 463.5 23.2188 463.875 22.9688C464.25 22.7188 464.656 22.5312 465.094 22.4062C465.969 22.1562 466.844 22.1875 467.719 22.5C468.656 22.75 469.562 22.8438 470.438 22.7812C471.5 22.6562 472.5 22.375 473.438 21.9375C474.438 21.5 475.594 21.2812 476.906 21.2812C477.344 21.2812 477.75 21.4375 478.125 21.75C478.5 22 478.875 22.1562 479.25 22.2188C479.75 22.3438 480.188 22.2812 480.562 22.0312C481 21.7812 481.469 21.6562 481.969 21.6562C482.844 21.6562 483.5 21.9375 483.938 22.5C484.438 23.0625 485 23.625 485.625 24.1875C485.938 25.625 485.969 27.0312 485.719 28.4062C485.469 29.7812 485.406 31.1875 485.531 32.625C485.656 33.5625 485.781 34.4688 485.906 35.3438C486.094 36.2188 486.188 37.125 486.188 38.0625C486.25 38.875 486.188 39.75 486 40.6875C485.875 41.5625 485.844 42.4375 485.906 43.3125C485.969 43.625 486.062 43.9375 486.188 44.25C486.312 44.5625 486.344 44.875 486.281 45.1875C486.156 45.875 485.875 46.4062 485.438 46.7812C485 47.1562 484.75 47.6562 484.688 48.2812C484.562 49.2188 484.75 50.0938 485.25 50.9062C485.812 51.7188 486.156 52.5625 486.281 53.4375C486.344 53.8125 486.312 54.2188 486.188 54.6562C486.062 55.0938 486 55.5 486 55.875C485.875 57.25 485.875 58.7812 486 60.4688C486.188 62.1562 486.312 63.7188 486.375 65.1562C486.375 65.6562 486.406 66.1562 486.469 66.6562C486.594 67.1562 486.594 67.5625 486.469 67.875C486.406 68.1875 486.25 68.4375 486 68.625C485.812 68.8125 485.656 69.0312 485.531 69.2812C485.469 69.5938 485.469 70.0312 485.531 70.5938C485.656 71.1562 485.719 71.6875 485.719 72.1875C485.719 72.625 485.688 73.0312 485.625 73.4062C485.562 73.8438 485.531 74.2188 485.531 74.5312C485.594 74.7188 485.656 74.9062 485.719 75.0938C485.844 75.3438 485.875 75.5625 485.812 75.75C485.688 76.3125 485.25 76.9062 484.5 77.5312C483.812 78.2188 483.094 78.5312 482.344 78.4688C481.969 78.4062 481.406 78.0938 480.656 77.5312C479.969 77.0312 479.469 76.625 479.156 76.3125C478.594 75.625 478.25 74.75 478.125 73.6875C478 72.625 477.719 71.6562 477.281 70.7812C477.094 70.4688 476.812 70.1875 476.438 69.9375C476.125 69.625 475.844 69.2812 475.594 68.9062C475.219 68.2188 474.969 67.5312 474.844 66.8438C474.719 66.0938 474.625 65.375 474.562 64.6875C474.562 63.9375 474.531 63.2188 474.469 62.5312C474.406 61.7812 474.25 61.0312 474 60.2812C473.875 60.0312 473.688 59.8125 473.438 59.625C473.188 59.4375 472.969 59.1875 472.781 58.875C472.406 58.25 472.156 57.7188 472.031 57.2812C471.906 56.8438 471.5 56.5 470.812 56.25C468.625 56.25 466.406 56.1875 464.156 56.0625C461.969 55.9375 459.812 56 457.688 56.25C457.188 56.3125 456.75 56.4375 456.375 56.625C456 56.75 455.562 56.8438 455.062 56.9062C454.812 56.9062 454.562 56.875 454.312 56.8125C454.062 56.75 453.844 56.7188 453.656 56.7188C452.781 56.8438 451.938 57.25 451.125 57.9375C450.312 58.5625 449.688 59.1875 449.25 59.8125C449 60.1875 448.844 60.6562 448.781 61.2188C448.781 61.7188 448.688 62.2188 448.5 62.7188C448.312 63.2188 448 63.6875 447.562 64.125C447.125 64.5 446.969 65 447.094 65.625C446.406 66.125 445.812 66.75 445.312 67.5C444.875 68.25 444.438 69.0312 444 69.8438C443.562 70.5938 443.062 71.3125 442.5 72C442 72.6875 441.375 73.1875 440.625 73.5C440.312 73.625 440 73.7812 439.688 73.9688C439.438 74.1562 439.156 74.25 438.844 74.25C438.531 74.1875 438.344 74.0938 438.281 73.9688C438.281 73.8438 438.094 73.6562 437.719 73.4062C437.344 73.1562 436.906 72.875 436.406 72.5625C435.844 72.25 435.312 71.9062 434.812 71.5312C434.312 71.1562 433.875 70.7812 433.5 70.4062C433.062 69.9688 432.75 69.5625 432.562 69.1875C432.062 68.125 431.969 67.375 432.281 66.9375C432.594 66.4375 433 65.8438 433.5 65.1562C434.188 64.1562 434.969 63.0312 435.844 61.7812C436.719 60.5312 437.5 59.3438 438.188 58.2188C438.562 57.5938 438.875 57 439.125 56.4375C439.438 55.875 439.812 55.3438 440.25 54.8438C440.75 54.1562 441.375 53.5938 442.125 53.1562C442.938 52.7188 443.5 52.1562 443.812 51.4688C443.938 51.1562 444 50.8438 444 50.5312C444 50.1562 444.062 49.7812 444.188 49.4062C444.688 48.1562 445.469 47.0312 446.531 46.0312C447.594 45.0312 448.406 43.9062 448.969 42.6562C449.094 42.3438 449.156 42.0625 449.156 41.8125C449.219 41.5 449.312 41.1875 449.438 40.875C450.438 38.5625 451.656 36.5 453.094 34.6875C454.594 32.875 455.875 31.0625 456.938 29.25ZM470.062 28.9688C469.312 29.5312 468.656 30.1875 468.094 30.9375C467.594 31.625 466.906 32.1562 466.031 32.5312C465.781 33.0938 465.469 33.625 465.094 34.125C464.781 34.625 464.344 35.0312 463.781 35.3438C463.594 36.3438 463.219 37.2188 462.656 37.9688C462.094 38.6562 461.562 39.3438 461.062 40.0312C460.812 40.2812 460.594 40.5625 460.406 40.875C460.219 41.125 460 41.4062 459.75 41.7188C459.438 42.0312 459.125 42.2812 458.812 42.4688C458.5 42.5938 458.219 42.7812 457.969 43.0312C457.594 43.5312 457.188 44.2188 456.75 45.0938C456.312 45.9688 455.906 46.6875 455.531 47.25C455.219 47.5625 454.906 47.875 454.594 48.1875C454.281 48.5 454.188 48.9062 454.312 49.4062C454.5 49.9062 454.875 50.25 455.438 50.4375C456 50.5625 456.625 50.6562 457.312 50.7188C458.062 50.7188 458.781 50.6875 459.469 50.625C460.156 50.5625 460.719 50.5312 461.156 50.5312C462.031 50.5312 462.906 50.5625 463.781 50.625C464.719 50.625 465.594 50.5938 466.406 50.5312C467.281 50.4688 468.031 50.3125 468.656 50.0625C469.344 49.8125 469.875 49.4375 470.25 48.9375C470.875 46.9375 471.031 44.9375 470.719 42.9375C470.406 40.875 470.125 38.8438 469.875 36.8438C469.75 36.2812 469.656 35.6562 469.594 34.9688C469.531 34.2812 469.531 33.6562 469.594 33.0938C469.656 32.4688 469.844 31.875 470.156 31.3125C470.531 30.6875 470.594 29.9688 470.344 29.1562L470.062 28.9688Z" fill="#D86AFF"/>
<path d="M526.406 32.8125C526.969 33.0625 527.344 33.4062 527.531 33.8438C527.719 34.2188 527.844 34.625 527.906 35.0625C528.031 35.5 528.156 35.9375 528.281 36.375C528.406 36.8125 528.719 37.1562 529.219 37.4062C529.344 37.5312 529.562 37.6875 529.875 37.875C530.188 38.0625 530.531 38.2812 530.906 38.5312C531.281 38.7188 531.625 38.9062 531.938 39.0938C532.312 39.2188 532.594 39.25 532.781 39.1875C533.156 39.125 533.5 38.8438 533.812 38.3438C534.125 37.8438 534.375 37.2812 534.562 36.6562C534.812 35.9688 534.969 35.2812 535.031 34.5938C535.094 33.9062 535.062 33.3438 534.938 32.9062C534.812 32.7188 534.469 32.4688 533.906 32.1562C533.344 31.7812 532.906 31.5312 532.594 31.4062C531.719 31.0938 530.906 30.7188 530.156 30.2812C529.406 29.8438 528.594 29.4688 527.719 29.1562C527.344 29.0312 526.938 28.8438 526.5 28.5938C526.125 28.2812 525.75 28.125 525.375 28.125C525.125 28.0625 524.844 28.125 524.531 28.3125C524.219 28.4375 523.906 28.5 523.594 28.5C523.219 28.5625 522.75 28.5938 522.188 28.5938C521.688 28.5312 521.156 28.5312 520.594 28.5938C520.031 28.6562 519.438 28.75 518.812 28.875C518.25 29 517.75 29.2188 517.312 29.5312C516.5 30.2188 515.906 31 515.531 31.875C515.219 32.6875 514.781 33.625 514.219 34.6875C514.094 34.9375 513.875 35.2188 513.562 35.5312C513.25 35.8438 513.094 36.2188 513.094 36.6562C513.094 36.9062 513.188 37.125 513.375 37.3125C513.625 37.5 513.812 37.7812 513.938 38.1562C514.125 38.5312 514.25 38.9375 514.312 39.375C514.375 39.75 514.469 40.0938 514.594 40.4062C514.781 40.5938 514.969 40.7812 515.156 40.9688C515.344 41.0938 515.5 41.2188 515.625 41.3438C515.812 41.5312 515.938 41.75 516 42C516.125 42.25 516.281 42.4375 516.469 42.5625C516.781 42.75 517.312 43.0938 518.062 43.5938C518.875 44.0312 519.625 44.3125 520.312 44.4375C521.5 44.6875 522.562 45.0938 523.5 45.6562C524.5 46.1562 525.469 46.5938 526.406 46.9688C527.094 47.2812 527.625 47.6562 528 48.0938C528.438 48.4688 528.812 48.875 529.125 49.3125C529.438 49.6875 529.75 50.0625 530.062 50.4375C530.438 50.8125 530.938 51.0938 531.562 51.2812C531.875 51.4062 532.156 51.4688 532.406 51.4688C532.656 51.4688 532.938 51.5312 533.25 51.6562C533.562 51.7812 533.875 52 534.188 52.3125C534.5 52.5625 534.844 52.8438 535.219 53.1562C535.469 53.4062 535.688 53.6875 535.875 54C536.125 54.25 536.312 54.5 536.438 54.75C536.625 55.125 536.75 55.625 536.812 56.25C536.875 56.8125 536.906 57.2812 536.906 57.6562C536.969 59.1562 536.938 60.3438 536.812 61.2188C536.688 62.0938 536.469 62.9062 536.156 63.6562C535.844 64.4062 535.438 65.1562 534.938 65.9062C534.5 66.6562 534 67.625 533.438 68.8125C532.625 69.1875 531.781 69.625 530.906 70.125C530.031 70.5625 529.281 71.0312 528.656 71.5312C528.344 71.7812 527.906 72.0938 527.344 72.4688C526.781 72.8438 526.281 73.0938 525.844 73.2188C524.969 73.5312 523.906 73.7188 522.656 73.7812C521.406 73.8438 520.25 74.0625 519.188 74.4375C518.562 74.625 517.812 74.6562 516.938 74.5312C516.125 74.4062 515.375 74.375 514.688 74.4375C513.875 74.5625 513.188 74.6875 512.625 74.8125C512.062 75 511.406 75.0312 510.656 74.9062C509.781 74.7812 508.812 74.4375 507.75 73.875C506.688 73.375 505.75 72.875 504.938 72.375C504.625 72.25 504.375 72.0938 504.188 71.9062C504 71.6562 503.75 71.4375 503.438 71.25C503 71 502.562 70.8438 502.125 70.7812C501.688 70.6562 501.281 70.4375 500.906 70.125C500.531 69.8125 500.188 69.5312 499.875 69.2812C499.562 68.9688 499.25 68.6562 498.938 68.3438C498.188 67.8438 497.344 67.3438 496.406 66.8438C495.531 66.2812 494.906 65.7188 494.531 65.1562C494.281 64.8438 494.125 64.4375 494.062 63.9375C494.062 63.375 493.938 62.8438 493.688 62.3438C493.562 61.9062 493.344 61.5312 493.031 61.2188C492.719 60.9062 492.531 60.5938 492.469 60.2812C492.281 59.4062 492.375 58.4375 492.75 57.375C493.125 56.3125 493.469 55.4062 493.781 54.6562C494.969 54.4688 495.938 54.5938 496.688 55.0312C497.5 55.4062 498.188 55.9375 498.75 56.625C499.312 57.3125 499.812 58.0938 500.25 58.9688C500.688 59.7812 501.125 60.5 501.562 61.125C502.062 61.9375 502.844 62.5625 503.906 63C504.969 63.4375 506 63.875 507 64.3125C507.375 64.5 507.719 64.6875 508.031 64.875C508.406 65 508.75 65.125 509.062 65.25C509.875 65.5625 510.562 65.9062 511.125 66.2812C511.75 66.5938 512.406 66.7812 513.094 66.8438C513.719 66.8438 514.312 66.8125 514.875 66.75C515.5 66.625 516.188 66.5 516.938 66.375C517.688 66.125 518.438 66.0312 519.188 66.0938C519.938 66.0938 520.656 65.9375 521.344 65.625C522.156 65.3125 522.625 64.9375 522.75 64.5C522.875 64.0625 523.156 63.4688 523.594 62.7188C523.344 61.5312 523.062 60.6875 522.75 60.1875C522.438 59.6875 521.875 59.0938 521.062 58.4062C520.75 58.1562 520.375 57.9688 519.938 57.8438C519.562 57.6562 519.219 57.4688 518.906 57.2812C517.594 56.4688 516.156 55.6562 514.594 54.8438C513.031 54.0312 511.312 53.4688 509.438 53.1562C508.25 52.7812 507 52.2812 505.688 51.6562C504.438 50.9688 503.531 50.0625 502.969 48.9375C502.781 48.6875 502.656 48.4375 502.594 48.1875C502.594 47.9375 502.531 47.6562 502.406 47.3438C501.906 46.0938 501.188 44.9062 500.25 43.7812C499.375 42.6562 498.781 41.375 498.469 39.9375C498.344 39.5 498.312 39.0625 498.375 38.625C498.438 38.125 498.5 37.6562 498.562 37.2188C498.688 36.7812 498.781 36.3125 498.844 35.8125C498.906 35.3125 498.875 34.7812 498.75 34.2188C499 33.9688 499.156 33.7188 499.219 33.4688C499.281 33.2188 499.375 32.9688 499.5 32.7188C499.75 32.3438 499.906 31.9688 499.969 31.5938C500.094 31.1562 500.375 30.75 500.812 30.375C501.25 30 501.594 29.625 501.844 29.25C502.156 28.8125 502.469 28.4688 502.781 28.2188C502.969 28.0938 503.188 28.0312 503.438 28.0312C503.688 27.9688 503.906 27.875 504.094 27.75C504.406 27.5625 504.688 27.3438 504.938 27.0938C505.188 26.7812 505.469 26.5 505.781 26.25C507.031 25.3125 508.438 24.5312 510 23.9062C511.562 23.2188 513.156 22.6875 514.781 22.3125C515.031 22 515.438 21.75 516 21.5625C516.562 21.3125 517.156 21.1562 517.781 21.0938C518.469 20.9688 519.125 20.875 519.75 20.8125C520.375 20.75 520.906 20.6875 521.344 20.625C523.281 20.875 524.812 21.1875 525.938 21.5625C527.125 21.9375 528.219 22.3438 529.219 22.7812C530.281 23.1562 531.406 23.5312 532.594 23.9062C533.781 24.2812 535.312 24.5938 537.188 24.8438C537.938 25.4062 538.719 26.0938 539.531 26.9062C540.406 27.6562 541.156 28.5 541.781 29.4375C542.406 30.375 542.844 31.375 543.094 32.4375C543.406 33.4375 543.344 34.4688 542.906 35.5312C542.594 36.1562 542.344 36.875 542.156 37.6875C541.969 38.4375 541.688 39.125 541.312 39.75C541 40.25 540.656 40.8438 540.281 41.5312C539.969 42.2188 539.594 42.7812 539.156 43.2188C538.281 44.0938 537.156 44.7188 535.781 45.0938C534.406 45.4688 533.062 45.5938 531.75 45.4688C531.375 44.8438 530.781 44.3125 529.969 43.875C529.219 43.4375 528.438 43 527.625 42.5625C526.875 42.0625 526.156 41.5312 525.469 40.9688C524.844 40.3438 524.438 39.5938 524.25 38.7188C524.062 37.6562 524.094 36.5312 524.344 35.3438C524.656 34.1562 525.344 33.3125 526.406 32.8125Z" fill="#D86AFF"/>
<path d="M1.21996 33.04C0.939956 32.6 0.679956 32 0.439956 31.24C0.199956 30.48 0.0799561 29.68 0.0799561 28.84C0.0799561 27.28 0.419956 26.16 1.09996 25.48C1.81996 24.8 2.73996 24.46 3.85996 24.46H30.02C30.3 24.9 30.56 25.5 30.8 26.26C31.04 27.02 31.16 27.82 31.16 28.66C31.16 30.22 30.8 31.34 30.08 32.02C29.4 32.7 28.5 33.04 27.38 33.04H20.72V60.76C20.28 60.88 19.58 61 18.62 61.12C17.7 61.24 16.78 61.3 15.86 61.3C14.94 61.3 14.12 61.22 13.4 61.06C12.72 60.94 12.14 60.7 11.66 60.34C11.18 59.98 10.82 59.48 10.58 58.84C10.34 58.2 10.22 57.36 10.22 56.32V33.04H1.21996Z" fill="#D86AFF"/>
<path d="M70.8598 47.56C70.8598 49.72 70.4798 51.7 69.7198 53.5C68.9998 55.26 67.9398 56.78 66.5398 58.06C65.1398 59.3 63.4398 60.26 61.4398 60.94C59.4398 61.62 57.1798 61.96 54.6598 61.96C52.1398 61.96 49.8798 61.62 47.8798 60.94C45.8798 60.26 44.1798 59.3 42.7798 58.06C41.3798 56.78 40.2998 55.26 39.5398 53.5C38.8198 51.7 38.4598 49.72 38.4598 47.56V24.64C38.8998 24.56 39.5998 24.46 40.5598 24.34C41.5198 24.18 42.4398 24.1 43.3198 24.1C44.2398 24.1 45.0398 24.18 45.7198 24.34C46.4398 24.46 47.0398 24.7 47.5198 25.06C47.9998 25.42 48.3598 25.92 48.5998 26.56C48.8398 27.2 48.9598 28.04 48.9598 29.08V47.38C48.9598 49.3 49.4798 50.8 50.5198 51.88C51.5998 52.96 52.9798 53.5 54.6598 53.5C56.3798 53.5 57.7598 52.96 58.7998 51.88C59.8398 50.8 60.3598 49.3 60.3598 47.38V24.64C60.7998 24.56 61.4998 24.46 62.4598 24.34C63.4198 24.18 64.3398 24.1 65.2198 24.1C66.1398 24.1 66.9398 24.18 67.6198 24.34C68.3398 24.46 68.9398 24.7 69.4198 25.06C69.8998 25.42 70.2598 25.92 70.4998 26.56C70.7398 27.2 70.8598 28.04 70.8598 29.08V47.56Z" fill="#D86AFF"/>
<path d="M113.824 59.74C113.264 60.3 112.444 60.72 111.364 61C110.324 61.32 109.064 61.48 107.584 61.48C106.104 61.48 104.704 61.26 103.384 60.82C102.064 60.38 100.984 59.32 100.144 57.64L94.2036 45.52C93.6036 44.28 93.0635 43.12 92.5835 42.04C92.1035 40.92 91.5836 39.64 91.0236 38.2L90.6636 38.26C90.8236 40.42 90.9035 42.62 90.9035 44.86C90.9435 47.1 90.9636 49.3 90.9636 51.46V60.76C90.5236 60.88 89.8436 61 88.9236 61.12C88.0436 61.24 87.1636 61.3 86.2836 61.3C85.4036 61.3 84.6235 61.24 83.9436 61.12C83.2636 61 82.7035 60.76 82.2635 60.4C81.8235 60.04 81.4836 59.56 81.2436 58.96C81.0036 58.32 80.8836 57.5 80.8836 56.5V26.5C81.4436 25.7 82.3036 25.1 83.4636 24.7C84.6236 24.3 85.8635 24.1 87.1835 24.1C88.6635 24.1 90.0636 24.34 91.3836 24.82C92.7436 25.26 93.8236 26.3 94.6236 27.94L100.624 40.06C101.224 41.3 101.764 42.48 102.244 43.6C102.724 44.68 103.244 45.94 103.804 47.38L104.104 47.32C103.944 45.16 103.844 43 103.804 40.84C103.764 38.68 103.744 36.52 103.744 34.36V24.64C104.184 24.52 104.844 24.4 105.724 24.28C106.644 24.16 107.544 24.1 108.424 24.1C110.184 24.1 111.524 24.42 112.444 25.06C113.364 25.66 113.824 26.94 113.824 28.9V59.74Z" fill="#D86AFF"/>
<path d="M156.946 59.74C156.386 60.3 155.566 60.72 154.486 61C153.446 61.32 152.186 61.48 150.706 61.48C149.226 61.48 147.826 61.26 146.506 60.82C145.186 60.38 144.106 59.32 143.266 57.64L137.326 45.52C136.726 44.28 136.186 43.12 135.706 42.04C135.226 40.92 134.706 39.64 134.146 38.2L133.786 38.26C133.946 40.42 134.026 42.62 134.026 44.86C134.066 47.1 134.086 49.3 134.086 51.46V60.76C133.646 60.88 132.966 61 132.046 61.12C131.166 61.24 130.286 61.3 129.406 61.3C128.526 61.3 127.746 61.24 127.066 61.12C126.386 61 125.826 60.76 125.386 60.4C124.946 60.04 124.606 59.56 124.366 58.96C124.126 58.32 124.006 57.5 124.006 56.5V26.5C124.566 25.7 125.426 25.1 126.586 24.7C127.746 24.3 128.986 24.1 130.306 24.1C131.786 24.1 133.186 24.34 134.506 24.82C135.866 25.26 136.946 26.3 137.746 27.94L143.746 40.06C144.346 41.3 144.886 42.48 145.366 43.6C145.846 44.68 146.366 45.94 146.926 47.38L147.226 47.32C147.066 45.16 146.966 43 146.926 40.84C146.886 38.68 146.866 36.52 146.866 34.36V24.64C147.306 24.52 147.966 24.4 148.846 24.28C149.766 24.16 150.666 24.1 151.546 24.1C153.306 24.1 154.646 24.42 155.566 25.06C156.486 25.66 156.946 26.94 156.946 28.9V59.74Z" fill="#D86AFF"/>
<path d="M167.129 30.22C167.129 28.5 167.629 27.14 168.629 26.14C169.629 25.14 170.989 24.64 172.709 24.64H192.509C192.789 25.08 193.029 25.66 193.229 26.38C193.469 27.1 193.589 27.86 193.589 28.66C193.589 30.18 193.249 31.26 192.569 31.9C191.929 32.54 191.069 32.86 189.989 32.86H177.329V38.44H190.829C191.109 38.88 191.349 39.46 191.549 40.18C191.789 40.86 191.909 41.6 191.909 42.4C191.909 43.92 191.589 45 190.949 45.64C190.309 46.28 189.449 46.6 188.369 46.6H177.329V52.9H192.749C193.029 53.34 193.269 53.92 193.469 54.64C193.709 55.36 193.829 56.12 193.829 56.92C193.829 58.44 193.489 59.54 192.809 60.22C192.169 60.86 191.309 61.18 190.229 61.18H172.709C170.989 61.18 169.629 60.68 168.629 59.68C167.629 58.68 167.129 57.32 167.129 55.6V30.22Z" fill="#D86AFF"/>
<path d="M207.98 61.18C206.26 61.18 204.9 60.68 203.9 59.68C202.9 58.68 202.4 57.32 202.4 55.6V24.58C202.84 24.5 203.54 24.4 204.5 24.28C205.46 24.12 206.38 24.04 207.26 24.04C208.18 24.04 208.98 24.12 209.66 24.28C210.38 24.4 210.98 24.64 211.46 25C211.94 25.36 212.3 25.86 212.54 26.5C212.78 27.14 212.9 27.98 212.9 29.02V52.72H226.64C226.92 53.16 227.18 53.76 227.42 54.52C227.66 55.24 227.78 56 227.78 56.8C227.78 58.4 227.44 59.54 226.76 60.22C226.08 60.86 225.18 61.18 224.06 61.18H207.98Z" fill="#D86AFF"/>
</svg>
