<svg width="557" height="160" viewBox="0 0 557 160" fill="none" xmlns="http://www.w3.org/2000/svg">
<path d="M337.281 24.4688C336.719 25.5313 336.031 26.375 335.219 27C334.469 27.5625 333.656 28.1563 332.781 28.7812C332.031 29.4688 331.188 30.0938 330.25 30.6562C329.312 31.1563 328.5 31.75 327.812 32.4375C326.5 33.875 325.344 35.6562 324.344 37.7812C323.406 39.8438 322.5 41.9062 321.625 43.9688C321.375 44.4688 321.031 44.9688 320.594 45.4688C320.219 45.9688 319.906 46.5 319.656 47.0625C318.969 48.75 318.375 50.5312 317.875 52.4062C317.438 54.2812 317 56.1875 316.562 58.125C316.188 60 315.781 61.9062 315.344 63.8438C314.906 65.7812 314.375 67.6562 313.75 69.4688C313.438 69.7812 313.062 70.0625 312.625 70.3125C312.188 70.5 311.875 70.8125 311.688 71.25C311.75 71.5625 311.875 71.875 312.062 72.1875C312.312 72.4375 312.469 72.75 312.531 73.125C312.594 73.625 312.5 74.125 312.25 74.625C312.062 75.125 311.906 75.6875 311.781 76.3125C311.469 78.125 310.969 80.125 310.281 82.3125C309.656 84.4375 308.844 86.125 307.844 87.375C307.281 89.25 306.75 91.1562 306.25 93.0938C305.812 95.0312 305.062 96.7188 304 98.1562C303.438 98.3438 302.906 98.5938 302.406 98.9062C301.969 99.2188 301.406 99.375 300.719 99.375C300.406 99.375 300.062 99.2812 299.688 99.0938C299.375 98.9062 299 98.75 298.562 98.625C298.062 98.5 297.5 98.375 296.875 98.25C296.25 98.1875 295.656 98.0625 295.094 97.875C294.531 97.75 293.969 97.5938 293.406 97.4062C292.906 97.2188 292.406 97.125 291.906 97.125C291.344 97.125 290.594 97.125 289.656 97.125C288.719 97.125 288 97.0312 287.5 96.8438C287.312 96.2188 287.031 95.6562 286.656 95.1562C286.344 94.5938 286.062 94 285.812 93.375C285.562 92.8125 285.281 92.1875 284.969 91.5C284.656 90.8125 284.469 90.125 284.406 89.4375C284.344 89.125 284.375 88.7812 284.5 88.4062C284.625 88.0312 284.656 87.6875 284.594 87.375C284.469 86.875 284.219 86.375 283.844 85.875C283.469 85.375 283.219 84.875 283.094 84.375C283.031 84.0625 283.031 83.75 283.094 83.4375C283.156 83.0625 283.156 82.7188 283.094 82.4062C283.031 81.9688 282.875 81.625 282.625 81.375C282.438 81.125 282.281 80.8125 282.156 80.4375C282.031 80.25 282 80.0625 282.062 79.875C282.125 79.625 282.125 79.4062 282.062 79.2188C281.938 78.7812 281.719 78.375 281.406 78C281.156 77.5625 280.969 77.1562 280.844 76.7812C280.594 75.7812 280.469 74.75 280.469 73.6875C280.531 72.5625 280.5 71.4688 280.375 70.4062C280.25 69.5312 280.031 68.6875 279.719 67.875C279.469 67 279.344 66.0938 279.344 65.1562C279.344 64.6562 279.438 64.2188 279.625 63.8438C279.812 63.4688 279.906 63.0625 279.906 62.625C279.969 62.125 279.906 61.6875 279.719 61.3125C279.531 60.9375 279.406 60.5 279.344 60C279.156 59.5625 278.844 59.25 278.406 59.0625C278.031 58.875 277.656 58.6562 277.281 58.4062C276.781 56.5938 276.094 54.5312 275.219 52.2188C274.344 49.8438 273.656 47.7188 273.156 45.8438C273.156 45.7188 273.094 45.9062 272.969 46.4062C272.906 46.8438 272.781 47.4062 272.594 48.0938C272.469 48.7812 272.281 49.5 272.031 50.25C271.781 51 271.469 51.5938 271.094 52.0312C271.594 52.9062 271.625 53.9688 271.188 55.2188C270.75 56.4688 270.375 57.7188 270.062 58.9688C269.625 60.7812 269.219 62.625 268.844 64.5C268.469 66.3125 267.969 68.125 267.344 69.9375C267.219 70.375 267.062 70.75 266.875 71.0625C266.688 71.375 266.531 71.7188 266.406 72.0938C266.219 72.7188 266.125 73.375 266.125 74.0625C266.125 74.75 266.062 75.4375 265.938 76.125C265.812 76.8125 265.688 77.4688 265.562 78.0938C265.5 78.7188 265.406 79.3438 265.281 79.9688C265.094 81.0938 264.875 82.3438 264.625 83.7188C264.438 85.0938 264.156 86.4375 263.781 87.75C263.469 89 263.031 90.1562 262.469 91.2188C261.906 92.2188 261.188 92.9375 260.312 93.375C259.625 93.8125 259 93.9688 258.438 93.8438C257.938 93.7188 257.406 93.4688 256.844 93.0938C256.531 93.1562 256.344 93.375 256.281 93.75C256.219 94.0625 256.062 94.2812 255.812 94.4062C254.938 94.3438 254.219 94.5 253.656 94.875C253.094 95.1875 252.469 95.4375 251.781 95.625C251.594 95.6875 251.375 95.7188 251.125 95.7188C250.938 95.6562 250.75 95.6875 250.562 95.8125C250 96 249.5 96.25 249.062 96.5625C248.625 96.875 248.188 97.1562 247.75 97.4062C247.375 97.7188 246.969 97.9688 246.531 98.1562C246.094 98.3438 245.625 98.375 245.125 98.25C244.375 98.0625 243.844 97.6562 243.531 97.0312C243.156 96.4062 242.719 95.8438 242.219 95.3438C242.344 94.4688 242.562 93.5 242.875 92.4375C243.125 91.375 243.438 90.3125 243.812 89.25C244.125 88.125 244.469 87.0625 244.844 86.0625C245.219 85 245.562 84.0625 245.875 83.25C246.062 82.5625 246.281 81.9062 246.531 81.2812C246.719 80.6562 246.906 80 247.094 79.3125C247.281 78.6875 247.531 78.0938 247.844 77.5312C248.156 76.9062 248.375 76.2812 248.5 75.6562C248.625 74.9688 248.656 74.3125 248.594 73.6875C248.531 73 248.531 72.3125 248.594 71.625C248.719 71 248.938 70.3125 249.25 69.5625C249.562 68.8125 249.812 68.0938 250 67.4062C250.625 65.2812 251.281 63.25 251.969 61.3125C252.656 59.3125 253.625 57.5625 254.875 56.0625C254.875 55.1875 255 54.375 255.25 53.625C255.5 52.875 255.75 52.1562 256 51.4688C256.25 50.7812 256.406 50.125 256.469 49.5C256.531 48.8125 256.375 48.0938 256 47.3438C256.25 46.2188 256.562 45.1562 256.938 44.1562C257.375 43.0938 257.719 41.9688 257.969 40.7812C258.031 40.4688 258.031 40.125 257.969 39.75C257.969 39.375 258.031 39.0312 258.156 38.7188C258.281 38.1562 258.5 37.5625 258.812 36.9375C259.188 36.25 259.562 35.5938 259.938 34.9688C260.375 34.2812 260.75 33.625 261.062 33C261.438 32.375 261.688 31.8125 261.812 31.3125C262.5 31.1875 263.156 31.0625 263.781 30.9375C264.406 30.75 265.156 30.6562 266.031 30.6562C266.406 30.6562 266.781 30.7187 267.156 30.8438C267.531 30.9062 267.906 30.9062 268.281 30.8438C268.969 30.7187 269.469 30.4063 269.781 29.9062C270.156 29.4062 270.594 29.0312 271.094 28.7812C271.969 28.6562 272.812 28.5938 273.625 28.5938C274.5 28.5313 275.344 28.375 276.156 28.125C276.531 28 277 27.8438 277.562 27.6562C278.188 27.4688 278.688 27.375 279.062 27.375C279.812 27.375 280.406 27.6562 280.844 28.2188C281.344 28.7812 281.75 29.4688 282.062 30.2812C282.375 31.0312 282.656 31.8125 282.906 32.625C283.156 33.375 283.5 33.9688 283.938 34.4062C283.938 36.2812 284.031 38 284.219 39.5625C284.406 41.0625 284.562 42.8125 284.688 44.8125C284.938 46.9375 285.281 48.9062 285.719 50.7188C286.156 52.4688 286.625 54.2812 287.125 56.1562C287.312 56.9688 287.438 57.7812 287.5 58.5938C287.625 59.4062 287.844 60.1562 288.156 60.8438C288.656 62.0938 289.156 63.25 289.656 64.3125C290.219 65.375 290.562 66.5312 290.688 67.7812C290.875 69.2188 290.938 70.5938 290.875 71.9062C290.812 73.1562 290.938 74.4062 291.25 75.6562C291.562 76.6562 291.906 77.4688 292.281 78.0938C292.656 78.7188 293.188 79.4375 293.875 80.25C294.562 79.375 294.969 78.4375 295.094 77.4375C295.219 76.4375 295.344 75.4375 295.469 74.4375C295.656 73.375 295.906 72.375 296.219 71.4375C296.531 70.4375 296.844 69.4062 297.156 68.3438C297.469 66.8438 297.875 65.2812 298.375 63.6562C298.938 62.0312 299.5 60.5625 300.062 59.25C300.188 58.875 300.406 58.4688 300.719 58.0312C301.031 57.5938 301.312 57.1562 301.562 56.7188C301.938 56.0312 302 55.25 301.75 54.375C301.562 53.4375 301.531 52.5312 301.656 51.6562C301.781 51.0312 301.938 50.375 302.125 49.6875C302.375 48.9375 302.594 48.1875 302.781 47.4375C303.219 45.625 303.469 43.6875 303.531 41.625C303.656 39.5625 303.938 37.7812 304.375 36.2812C304.562 35.7812 304.812 35.0938 305.125 34.2188C305.438 33.3438 305.562 32.5938 305.5 31.9688C305.5 31.4687 305.312 31.0937 304.938 30.8438C304.625 30.5938 304.469 30.2188 304.469 29.7188C304.469 29.2187 304.688 28.7812 305.125 28.4062C305.625 28.0312 306.188 27.7187 306.812 27.4688C307.5 27.2188 308.188 27.0313 308.875 26.9062C309.625 26.7812 310.25 26.7188 310.75 26.7188C311.312 26.7188 311.812 26.7812 312.25 26.9062C312.75 27.0313 313.219 27.1562 313.656 27.2812C314.094 27.4063 314.562 27.5312 315.062 27.6562C315.625 27.7187 316.25 27.7187 316.938 27.6562C318 27.5312 319.188 27.4063 320.5 27.2812C321.812 27.0938 323.094 26.9687 324.344 26.9062C324.969 26.8438 325.562 26.8125 326.125 26.8125C326.75 26.75 327.281 26.6563 327.719 26.5312C328.344 26.3438 328.969 26.1562 329.594 25.9688C330.219 25.7188 330.969 25.5313 331.844 25.4062C332.594 25.2812 333.312 25.125 334 24.9375C334.75 24.6875 335.375 24.4688 335.875 24.2812C336.062 24.1562 336.25 24.0938 336.438 24.0938C336.688 24.0313 336.969 24.1562 337.281 24.4688ZM323.312 91.2188C323.438 89.7812 323.906 88.5 324.719 87.375C325.594 86.1875 326.25 84.9688 326.688 83.7188C326.938 82.9062 327.094 82.0625 327.156 81.1875C327.281 80.25 327.344 79.3438 327.344 78.4688C327.406 77.5312 327.5 76.625 327.625 75.75C327.75 74.8125 327.969 73.9062 328.281 73.0312C327.969 72.4688 327.844 71.8438 327.906 71.1562C327.969 70.4688 328 69.75 328 69C328.312 68.5625 328.562 68.0625 328.75 67.5C328.938 66.9375 329.375 66.5625 330.062 66.375C330.688 65 331 63.5938 331 62.1562C331 60.6562 331.156 59.125 331.469 57.5625C331.531 57.25 331.656 56.9688 331.844 56.7188C332.031 56.4688 332.188 56.1875 332.312 55.875C332.75 54.5625 332.969 53.1875 332.969 51.75C332.969 50.25 333.219 48.8438 333.719 47.5312C334.094 47.4062 334.562 47.2188 335.125 46.9688C335.688 46.6562 336.25 46.375 336.812 46.125C337.438 45.8125 338.031 45.5625 338.594 45.375C339.156 45.1875 339.656 45.125 340.094 45.1875C340.406 45.3125 340.719 45.5 341.031 45.75C341.344 45.9375 341.719 46.1875 342.156 46.5C342.469 46.6875 342.75 46.9062 343 47.1562C343.312 47.4062 343.625 47.625 343.938 47.8125C344.188 47.9375 344.5 48.0625 344.875 48.1875C345.312 48.25 345.594 48.3438 345.719 48.4688C345.781 48.5312 345.969 48.75 346.281 49.125C346.656 49.5 347 49.9062 347.312 50.3438C347.688 50.7812 348.031 51.2188 348.344 51.6562C348.656 52.0312 348.844 52.2812 348.906 52.4062C348.969 52.7812 348.938 53.2188 348.812 53.7188C348.688 54.1562 348.5 54.625 348.25 55.125C348.062 55.5625 347.844 56.0312 347.594 56.5312C347.406 56.9688 347.25 57.375 347.125 57.75C346.938 58.4375 346.75 59.125 346.562 59.8125C346.375 60.4375 346.125 61.0938 345.812 61.7812C345.5 62.5938 345.156 63.5312 344.781 64.5938C344.406 65.6562 344.156 66.7812 344.031 67.9688C343.906 68.8438 343.562 69.5 343 69.9375C342.5 70.375 342.156 71 341.969 71.8125C341.844 72.375 341.781 72.9688 341.781 73.5938C341.781 74.2188 341.781 74.8438 341.781 75.4688C341.844 76.0312 341.844 76.5938 341.781 77.1562C341.781 77.7188 341.656 78.25 341.406 78.75C341.219 79.0625 340.938 79.3125 340.562 79.5C340.188 79.625 339.875 79.8438 339.625 80.1562C339.25 80.7812 338.906 81.5625 338.594 82.5C338.344 83.4375 338.125 84.4375 337.938 85.5C337.75 86.5 337.656 87.5312 337.656 88.5938C337.719 89.5938 337.906 90.5 338.219 91.3125C337.906 92.3125 337.344 93.1875 336.531 93.9375C335.781 94.6875 334.875 95.2812 333.812 95.7188C332.75 96.0938 331.594 96.2812 330.344 96.2812C329.156 96.3438 327.938 96.1562 326.688 95.7188C326.188 94.9688 325.594 94.2812 324.906 93.6562C324.219 92.9688 323.688 92.1562 323.312 91.2188ZM353.875 94.3125C352.562 94.75 351.406 94.5938 350.406 93.8438C349.406 93.0312 348.781 92.0938 348.531 91.0312C348.406 90.5312 348.406 89.7812 348.531 88.7812C348.656 87.7188 348.844 86.875 349.094 86.25C349.344 85.5625 349.875 84.75 350.688 83.8125C351.5 82.875 352.125 81.8125 352.562 80.625C353 79.5 353.344 78.4375 353.594 77.4375C353.906 76.375 354.344 75.5312 354.906 74.9062C355.344 74.4688 355.812 74.0938 356.312 73.7812C356.812 73.4062 357.094 72.9375 357.156 72.375C357.156 71.875 357 71.4375 356.688 71.0625C356.438 70.6875 356.344 70.1875 356.406 69.5625C356.406 69 356.562 68.2812 356.875 67.4062C357.25 66.5312 357.594 65.75 357.906 65.0625C358.594 63.5625 359.125 62.0312 359.5 60.4688C359.625 60.0312 359.719 59.5312 359.781 58.9688C359.906 58.3438 360.031 57.875 360.156 57.5625C360.344 57.3125 360.531 56.9062 360.719 56.3438C360.969 55.7812 361.25 55.2188 361.562 54.6562C361.875 54.0938 362.219 53.5938 362.594 53.1562C362.969 52.6562 363.375 52.3125 363.812 52.125C364.312 51.9375 364.844 51.8125 365.406 51.75C366.031 51.625 366.594 51.4375 367.094 51.1875C367.656 51 368 50.7812 368.125 50.5312C368.25 50.2812 368.562 50.0312 369.062 49.7812C369.438 49.6562 369.812 49.5938 370.188 49.5938C370.625 49.5938 371.062 49.5312 371.5 49.4062C372 49.2188 372.531 48.9375 373.094 48.5625C373.656 48.1875 374.312 48.2188 375.062 48.6562C375.375 48.8438 375.688 49.4062 376 50.3438C376.312 51.2812 376.625 52.1562 376.938 52.9688C377.062 53.4062 377.219 53.9375 377.406 54.5625C377.656 55.1875 377.875 55.8438 378.062 56.5312C378.25 57.1562 378.438 57.75 378.625 58.3125C378.812 58.8125 378.969 59.1875 379.094 59.4375C379.406 60.0625 379.625 60.7188 379.75 61.4062C379.875 62.0938 380.062 62.7188 380.312 63.2812C380.625 63.9062 380.938 64.5 381.25 65.0625C381.562 65.625 381.875 66.25 382.188 66.9375C382.5 67.625 382.781 68.2812 383.031 68.9062C383.281 69.5312 383.594 70.1875 383.969 70.875C384.219 71.375 384.594 71.8438 385.094 72.2812C385.594 72.6562 385.906 73.0938 386.031 73.5938C386.219 74.0938 386.219 74.6562 386.031 75.2812C385.844 75.8438 385.812 76.375 385.938 76.875C386.125 77.5625 386.531 78.125 387.156 78.5625C387.781 79 388.344 79.4688 388.844 79.9688C389.156 80.3438 389.344 80.7188 389.406 81.0938C389.469 81.4688 389.75 81.7188 390.25 81.8438C390.375 80.6562 390.5 79.625 390.625 78.75C390.812 77.875 391 77.0312 391.188 76.2188C391.375 75.3438 391.562 74.4688 391.75 73.5938C391.938 72.6562 392.094 71.625 392.219 70.5C392.844 69.6875 393.406 68.9375 393.906 68.25C394.406 67.5 394.625 66.5312 394.562 65.3438C394.5 64.9688 394.375 64.5938 394.188 64.2188C394.062 63.8438 394.031 63.4375 394.094 63C394.156 62.375 394.281 61.8125 394.469 61.3125C394.656 60.8125 394.906 60.1875 395.219 59.4375C395.406 58.9375 395.562 58.4375 395.688 57.9375C395.812 57.375 395.969 56.7812 396.156 56.1562C396.344 55.6562 396.5 55.25 396.625 54.9375C396.812 54.625 397 54.3438 397.188 54.0938C397.375 53.7812 397.531 53.4688 397.656 53.1562C397.781 52.7812 397.906 52.25 398.031 51.5625C398.219 50.5 398.312 49.5938 398.312 48.8438C398.312 48.0938 398.469 47.3438 398.781 46.5938C399.281 45.4688 400.062 44.5312 401.125 43.7812C402.25 42.9688 403.312 42.3125 404.312 41.8125C406.062 41.875 407.5 42.3438 408.625 43.2188C409.75 44.0312 410.469 45.0312 410.781 46.2188C411.219 47.3438 411.188 48.2812 410.688 49.0312C410.188 49.7188 409.688 50.5 409.188 51.375C408.875 51.9375 408.625 52.4688 408.438 52.9688C408.312 53.4688 408.188 53.9688 408.062 54.4688C408 54.9062 407.906 55.375 407.781 55.875C407.719 56.375 407.562 56.9375 407.312 57.5625C407.125 58.1875 406.844 58.7188 406.469 59.1562C406.094 59.5312 405.844 59.9375 405.719 60.375C405.906 61.25 405.969 61.9688 405.906 62.5312C405.906 63.0938 405.812 63.625 405.625 64.125C405.5 64.5625 405.344 65.0312 405.156 65.5312C405.031 65.9688 404.906 66.4688 404.781 67.0312C404.656 67.4688 404.594 67.9062 404.594 68.3438C404.594 68.7812 404.531 69.1875 404.406 69.5625C404.219 70.3125 403.969 71 403.656 71.625C403.344 72.25 403.031 72.8438 402.719 73.4062C402.281 74.3438 401.781 75.2188 401.219 76.0312C400.719 76.8438 400.406 77.9375 400.281 79.3125C400.219 80.1875 400.156 80.9688 400.094 81.6562C400.094 82.2812 400.062 82.875 400 83.4375C400 84 399.906 84.5938 399.719 85.2188C399.594 85.8438 399.406 86.5938 399.156 87.4688C399.031 87.9688 398.844 88.4688 398.594 88.9688C398.406 89.4062 398.25 89.875 398.125 90.375C397.75 92 397.219 93.25 396.531 94.125C395.844 94.9375 394.812 95.7812 393.438 96.6562C392.688 96.8438 391.938 97.0312 391.188 97.2188C390.438 97.4062 389.688 97.5 388.938 97.5C388.25 97.5 387.594 97.375 386.969 97.125C386.344 96.9375 385.812 96.5 385.375 95.8125C385.062 95.3125 384.719 94.5938 384.344 93.6562C384.031 92.6562 383.656 91.6875 383.219 90.75C383.031 90.3125 382.812 89.9062 382.562 89.5312C382.375 89.0938 382.219 88.6562 382.094 88.2188C381.781 87.5312 381.562 86.9375 381.438 86.4375C381.375 85.9375 381.188 85.25 380.875 84.375C380.438 83 379.75 81.9688 378.812 81.2812C377.875 80.5938 377.062 79.8438 376.375 79.0312C376.312 78.4062 376.219 77.8438 376.094 77.3438C375.969 76.8438 375.688 76.4375 375.25 76.125C375.125 76 374.969 75.9375 374.781 75.9375C374.594 75.875 374.438 75.75 374.312 75.5625C374.125 75.3125 374 75.0312 373.938 74.7188C373.875 74.3438 373.75 74.0625 373.562 73.875C373.438 73.75 373.25 73.4688 373 73.0312C372.75 72.5938 372.5 72.1562 372.25 71.7188C372.062 71.2812 371.844 70.9062 371.594 70.5938C371.344 70.2188 371.156 70.0625 371.031 70.125C370.719 70.125 370.406 70.375 370.094 70.875C369.844 71.375 369.562 71.9375 369.25 72.5625C369 73.1875 368.75 73.8125 368.5 74.4375C368.25 75 368.031 75.4062 367.844 75.6562C367.531 76.0938 367.281 76.75 367.094 77.625C366.969 78.4375 366.781 79.0938 366.531 79.5938C366.094 80.3438 365.688 81.0938 365.312 81.8438C365 82.5938 365.094 83.4062 365.594 84.2812C365.594 84.7188 365.469 85.0938 365.219 85.4062C365.031 85.6562 365 86.0938 365.125 86.7188C364.75 87.4062 364.375 88.1875 364 89.0625C363.688 89.9375 363.344 90.9062 362.969 91.9688C362.781 92.5938 362.625 93.25 362.5 93.9375C362.375 94.5625 362.219 95.1875 362.031 95.8125C361.844 96.375 361.562 96.875 361.188 97.3125C360.875 97.75 360.438 98 359.875 98.0625C359.125 98.1875 358.5 98.0938 358 97.7812C357.5 97.4688 357.031 97.0938 356.594 96.6562C356.156 96.2812 355.719 95.875 355.281 95.4375C354.844 94.9375 354.375 94.5625 353.875 94.3125ZM440.781 43.875C440.094 46.5 439.344 48.9375 438.531 51.1875C437.781 53.4375 437.062 55.875 436.375 58.5C435.812 58.6875 435.406 59.0312 435.156 59.5312C434.969 60.0312 434.812 60.5938 434.688 61.2188C434.562 61.8438 434.469 62.5312 434.406 63.2812C434.344 63.9688 434.219 64.625 434.031 65.25C433.906 65.75 433.688 66.2188 433.375 66.6562C433.062 67.0312 432.844 67.4375 432.719 67.875C432.531 68.625 432.438 69.4688 432.438 70.4062C432.438 71.2812 432.375 72.125 432.25 72.9375C431.875 74.5625 431.25 76.1875 430.375 77.8125C429.5 79.375 428.781 81.0625 428.219 82.875C427.719 84.125 427.312 85.4062 427 86.7188C426.75 87.9688 426.375 89.1562 425.875 90.2812C425.562 91.0312 425.156 91.7812 424.656 92.5312C424.219 93.2812 423.781 94.0938 423.344 94.9688C422.906 95.7188 422.5 96.5 422.125 97.3125C421.75 98.125 421.312 98.875 420.812 99.5625C420.5 100 420.062 100.438 419.5 100.875C419 101.312 418.531 101.844 418.094 102.469C417.094 103.844 416.062 105 415 105.938C414 106.875 412.594 107.688 410.781 108.375C410.281 109.812 409.375 110.812 408.062 111.375C406.75 111.938 405.188 112.469 403.375 112.969C402.562 113.156 401.656 113.344 400.656 113.531C399.656 113.781 398.75 113.969 397.938 114.094C397.375 114.094 396.781 114 396.156 113.812C395.531 113.625 394.875 113.469 394.188 113.344C392.5 113.094 390.938 112.938 389.5 112.875C388 112.812 386.656 112.469 385.469 111.844C385.031 111.531 384.5 111.062 383.875 110.438C383.25 109.875 383 109.281 383.125 108.656C383.188 108.219 383.438 107.938 383.875 107.812C384.25 107.75 384.688 107.75 385.188 107.812C385.688 107.938 386.188 108.094 386.688 108.281C387.188 108.531 387.562 108.75 387.812 108.938C389.625 109.25 391.312 109.25 392.875 108.938C394.375 108.625 395.75 108.125 397 107.438C398.75 106.438 400.406 105.406 401.969 104.344C403.469 103.344 404.938 102.219 406.375 100.969C406.688 100.094 407.125 99.3438 407.688 98.7188C408.25 98.0938 408.844 97.4688 409.469 96.8438C410.031 96.2812 410.562 95.6562 411.062 94.9688C411.562 94.2812 411.938 93.4688 412.188 92.5312C411.938 91.6562 412.062 90.875 412.562 90.1875C413.125 89.5 413.531 88.8125 413.781 88.125C413.906 87.625 413.938 87.125 413.875 86.625C413.812 86.0625 413.781 85.4688 413.781 84.8438C413.844 83.9688 414.062 82.9688 414.438 81.8438C414.875 80.7188 415.156 79.5938 415.281 78.4688C415.344 77.9062 415.375 77.4062 415.375 76.9688C415.375 76.5312 415.469 76.125 415.656 75.75C415.969 75.1875 416.344 74.5938 416.781 73.9688C417.281 73.3438 417.719 72.6875 418.094 72C418.469 71.3125 418.844 70.5625 419.219 69.75C419.656 68.875 419.906 68.1875 419.969 67.6875C419.969 67 419.781 66.3125 419.406 65.625C419.031 64.875 418.844 64.125 418.844 63.375C418.906 63.0625 418.969 62.6875 419.031 62.25C419.094 61.8125 419.188 61.4375 419.312 61.125C419.625 60 420.031 58.9688 420.531 58.0312C421.031 57.0312 421.438 55.9375 421.75 54.75C422 53.875 422.156 53 422.219 52.125C422.281 51.25 422.562 50.375 423.062 49.5C423.938 48.875 424.844 48.3438 425.781 47.9062C426.781 47.4062 427.812 46.9375 428.875 46.5C429.25 46.4375 429.469 46.5312 429.531 46.7812C429.656 46.9688 429.812 47.125 430 47.25C430.5 46.8125 430.938 46.1562 431.312 45.2812C431.75 44.3438 432.406 43.6562 433.281 43.2188C433.469 43.0938 433.719 43.0625 434.031 43.125C434.344 43.125 434.656 43.0625 434.969 42.9375C435.844 42.75 436.469 42.4688 436.844 42.0938C437.219 41.6562 437.812 41.5312 438.625 41.7188C439.125 41.8438 439.531 42.1562 439.844 42.6562C440.156 43.0938 440.469 43.5 440.781 43.875ZM457.938 53.25C459.125 52.4375 460.156 51.5 461.031 50.4375C461.906 49.375 462.75 48.3125 463.562 47.25C464.062 47.3125 464.5 47.2188 464.875 46.9688C465.25 46.7188 465.656 46.5312 466.094 46.4062C466.969 46.1562 467.844 46.1875 468.719 46.5C469.656 46.75 470.562 46.8438 471.438 46.7812C472.5 46.6562 473.5 46.375 474.438 45.9375C475.438 45.5 476.594 45.2812 477.906 45.2812C478.344 45.2812 478.75 45.4375 479.125 45.75C479.5 46 479.875 46.1562 480.25 46.2188C480.75 46.3438 481.188 46.2812 481.562 46.0312C482 45.7812 482.469 45.6562 482.969 45.6562C483.844 45.6562 484.5 45.9375 484.938 46.5C485.438 47.0625 486 47.625 486.625 48.1875C486.938 49.625 486.969 51.0312 486.719 52.4062C486.469 53.7812 486.406 55.1875 486.531 56.625C486.656 57.5625 486.781 58.4688 486.906 59.3438C487.094 60.2188 487.188 61.125 487.188 62.0625C487.25 62.875 487.188 63.75 487 64.6875C486.875 65.5625 486.844 66.4375 486.906 67.3125C486.969 67.625 487.062 67.9375 487.188 68.25C487.312 68.5625 487.344 68.875 487.281 69.1875C487.156 69.875 486.875 70.4062 486.438 70.7812C486 71.1562 485.75 71.6562 485.688 72.2812C485.562 73.2188 485.75 74.0938 486.25 74.9062C486.812 75.7188 487.156 76.5625 487.281 77.4375C487.344 77.8125 487.312 78.2188 487.188 78.6562C487.062 79.0938 487 79.5 487 79.875C486.875 81.25 486.875 82.7812 487 84.4688C487.188 86.1562 487.312 87.7188 487.375 89.1562C487.375 89.6562 487.406 90.1562 487.469 90.6562C487.594 91.1562 487.594 91.5625 487.469 91.875C487.406 92.1875 487.25 92.4375 487 92.625C486.812 92.8125 486.656 93.0312 486.531 93.2812C486.469 93.5938 486.469 94.0312 486.531 94.5938C486.656 95.1562 486.719 95.6875 486.719 96.1875C486.719 96.625 486.688 97.0312 486.625 97.4062C486.562 97.8438 486.531 98.2188 486.531 98.5312C486.594 98.7188 486.656 98.9062 486.719 99.0938C486.844 99.3438 486.875 99.5625 486.812 99.75C486.688 100.312 486.25 100.906 485.5 101.531C484.812 102.219 484.094 102.531 483.344 102.469C482.969 102.406 482.406 102.094 481.656 101.531C480.969 101.031 480.469 100.625 480.156 100.312C479.594 99.625 479.25 98.75 479.125 97.6875C479 96.625 478.719 95.6562 478.281 94.7812C478.094 94.4688 477.812 94.1875 477.438 93.9375C477.125 93.625 476.844 93.2812 476.594 92.9062C476.219 92.2188 475.969 91.5312 475.844 90.8438C475.719 90.0938 475.625 89.375 475.562 88.6875C475.562 87.9375 475.531 87.2188 475.469 86.5312C475.406 85.7812 475.25 85.0312 475 84.2812C474.875 84.0312 474.688 83.8125 474.438 83.625C474.188 83.4375 473.969 83.1875 473.781 82.875C473.406 82.25 473.156 81.7188 473.031 81.2812C472.906 80.8438 472.5 80.5 471.812 80.25C469.625 80.25 467.406 80.1875 465.156 80.0625C462.969 79.9375 460.812 80 458.688 80.25C458.188 80.3125 457.75 80.4375 457.375 80.625C457 80.75 456.562 80.8438 456.062 80.9062C455.812 80.9062 455.562 80.875 455.312 80.8125C455.062 80.75 454.844 80.7188 454.656 80.7188C453.781 80.8438 452.938 81.25 452.125 81.9375C451.312 82.5625 450.688 83.1875 450.25 83.8125C450 84.1875 449.844 84.6562 449.781 85.2188C449.781 85.7188 449.688 86.2188 449.5 86.7188C449.312 87.2188 449 87.6875 448.562 88.125C448.125 88.5 447.969 89 448.094 89.625C447.406 90.125 446.812 90.75 446.312 91.5C445.875 92.25 445.438 93.0312 445 93.8438C444.562 94.5938 444.062 95.3125 443.5 96C443 96.6875 442.375 97.1875 441.625 97.5C441.312 97.625 441 97.7812 440.688 97.9688C440.438 98.1562 440.156 98.25 439.844 98.25C439.531 98.1875 439.344 98.0938 439.281 97.9688C439.281 97.8438 439.094 97.6562 438.719 97.4062C438.344 97.1562 437.906 96.875 437.406 96.5625C436.844 96.25 436.312 95.9062 435.812 95.5312C435.312 95.1562 434.875 94.7812 434.5 94.4062C434.062 93.9688 433.75 93.5625 433.562 93.1875C433.062 92.125 432.969 91.375 433.281 90.9375C433.594 90.4375 434 89.8438 434.5 89.1562C435.188 88.1562 435.969 87.0312 436.844 85.7812C437.719 84.5312 438.5 83.3438 439.188 82.2188C439.562 81.5938 439.875 81 440.125 80.4375C440.438 79.875 440.812 79.3438 441.25 78.8438C441.75 78.1562 442.375 77.5938 443.125 77.1562C443.938 76.7188 444.5 76.1562 444.812 75.4688C444.938 75.1562 445 74.8438 445 74.5312C445 74.1562 445.062 73.7812 445.188 73.4062C445.688 72.1562 446.469 71.0312 447.531 70.0312C448.594 69.0312 449.406 67.9062 449.969 66.6562C450.094 66.3438 450.156 66.0625 450.156 65.8125C450.219 65.5 450.312 65.1875 450.438 64.875C451.438 62.5625 452.656 60.5 454.094 58.6875C455.594 56.875 456.875 55.0625 457.938 53.25ZM471.062 52.9688C470.312 53.5312 469.656 54.1875 469.094 54.9375C468.594 55.625 467.906 56.1562 467.031 56.5312C466.781 57.0938 466.469 57.625 466.094 58.125C465.781 58.625 465.344 59.0312 464.781 59.3438C464.594 60.3438 464.219 61.2188 463.656 61.9688C463.094 62.6562 462.562 63.3438 462.062 64.0312C461.812 64.2812 461.594 64.5625 461.406 64.875C461.219 65.125 461 65.4062 460.75 65.7188C460.438 66.0312 460.125 66.2812 459.812 66.4688C459.5 66.5938 459.219 66.7812 458.969 67.0312C458.594 67.5312 458.188 68.2188 457.75 69.0938C457.312 69.9688 456.906 70.6875 456.531 71.25C456.219 71.5625 455.906 71.875 455.594 72.1875C455.281 72.5 455.188 72.9062 455.312 73.4062C455.5 73.9062 455.875 74.25 456.438 74.4375C457 74.5625 457.625 74.6562 458.312 74.7188C459.062 74.7188 459.781 74.6875 460.469 74.625C461.156 74.5625 461.719 74.5312 462.156 74.5312C463.031 74.5312 463.906 74.5625 464.781 74.625C465.719 74.625 466.594 74.5938 467.406 74.5312C468.281 74.4688 469.031 74.3125 469.656 74.0625C470.344 73.8125 470.875 73.4375 471.25 72.9375C471.875 70.9375 472.031 68.9375 471.719 66.9375C471.406 64.875 471.125 62.8438 470.875 60.8438C470.75 60.2812 470.656 59.6562 470.594 58.9688C470.531 58.2812 470.531 57.6562 470.594 57.0938C470.656 56.4688 470.844 55.875 471.156 55.3125C471.531 54.6875 471.594 53.9688 471.344 53.1562L471.062 52.9688ZM527.406 56.8125C527.969 57.0625 528.344 57.4062 528.531 57.8438C528.719 58.2188 528.844 58.625 528.906 59.0625C529.031 59.5 529.156 59.9375 529.281 60.375C529.406 60.8125 529.719 61.1562 530.219 61.4062C530.344 61.5312 530.562 61.6875 530.875 61.875C531.188 62.0625 531.531 62.2812 531.906 62.5312C532.281 62.7188 532.625 62.9062 532.938 63.0938C533.312 63.2188 533.594 63.25 533.781 63.1875C534.156 63.125 534.5 62.8438 534.812 62.3438C535.125 61.8438 535.375 61.2812 535.562 60.6562C535.812 59.9688 535.969 59.2812 536.031 58.5938C536.094 57.9062 536.062 57.3438 535.938 56.9062C535.812 56.7188 535.469 56.4688 534.906 56.1562C534.344 55.7812 533.906 55.5312 533.594 55.4062C532.719 55.0938 531.906 54.7188 531.156 54.2812C530.406 53.8438 529.594 53.4688 528.719 53.1562C528.344 53.0312 527.938 52.8438 527.5 52.5938C527.125 52.2812 526.75 52.125 526.375 52.125C526.125 52.0625 525.844 52.125 525.531 52.3125C525.219 52.4375 524.906 52.5 524.594 52.5C524.219 52.5625 523.75 52.5938 523.188 52.5938C522.688 52.5312 522.156 52.5312 521.594 52.5938C521.031 52.6562 520.438 52.75 519.812 52.875C519.25 53 518.75 53.2188 518.312 53.5312C517.5 54.2188 516.906 55 516.531 55.875C516.219 56.6875 515.781 57.625 515.219 58.6875C515.094 58.9375 514.875 59.2188 514.562 59.5312C514.25 59.8438 514.094 60.2188 514.094 60.6562C514.094 60.9062 514.188 61.125 514.375 61.3125C514.625 61.5 514.812 61.7812 514.938 62.1562C515.125 62.5312 515.25 62.9375 515.312 63.375C515.375 63.75 515.469 64.0938 515.594 64.4062C515.781 64.5938 515.969 64.7812 516.156 64.9688C516.344 65.0938 516.5 65.2188 516.625 65.3438C516.812 65.5312 516.938 65.75 517 66C517.125 66.25 517.281 66.4375 517.469 66.5625C517.781 66.75 518.312 67.0938 519.062 67.5938C519.875 68.0312 520.625 68.3125 521.312 68.4375C522.5 68.6875 523.562 69.0938 524.5 69.6562C525.5 70.1562 526.469 70.5938 527.406 70.9688C528.094 71.2812 528.625 71.6562 529 72.0938C529.438 72.4688 529.812 72.875 530.125 73.3125C530.438 73.6875 530.75 74.0625 531.062 74.4375C531.438 74.8125 531.938 75.0938 532.562 75.2812C532.875 75.4062 533.156 75.4688 533.406 75.4688C533.656 75.4688 533.938 75.5312 534.25 75.6562C534.562 75.7812 534.875 76 535.188 76.3125C535.5 76.5625 535.844 76.8438 536.219 77.1562C536.469 77.4062 536.688 77.6875 536.875 78C537.125 78.25 537.312 78.5 537.438 78.75C537.625 79.125 537.75 79.625 537.812 80.25C537.875 80.8125 537.906 81.2812 537.906 81.6562C537.969 83.1562 537.938 84.3438 537.812 85.2188C537.688 86.0938 537.469 86.9062 537.156 87.6562C536.844 88.4062 536.438 89.1562 535.938 89.9062C535.5 90.6562 535 91.625 534.438 92.8125C533.625 93.1875 532.781 93.625 531.906 94.125C531.031 94.5625 530.281 95.0312 529.656 95.5312C529.344 95.7812 528.906 96.0938 528.344 96.4688C527.781 96.8438 527.281 97.0938 526.844 97.2188C525.969 97.5312 524.906 97.7188 523.656 97.7812C522.406 97.8438 521.25 98.0625 520.188 98.4375C519.562 98.625 518.812 98.6562 517.938 98.5312C517.125 98.4062 516.375 98.375 515.688 98.4375C514.875 98.5625 514.188 98.6875 513.625 98.8125C513.062 99 512.406 99.0312 511.656 98.9062C510.781 98.7812 509.812 98.4375 508.75 97.875C507.688 97.375 506.75 96.875 505.938 96.375C505.625 96.25 505.375 96.0938 505.188 95.9062C505 95.6562 504.75 95.4375 504.438 95.25C504 95 503.562 94.8438 503.125 94.7812C502.688 94.6562 502.281 94.4375 501.906 94.125C501.531 93.8125 501.188 93.5312 500.875 93.2812C500.562 92.9688 500.25 92.6562 499.938 92.3438C499.188 91.8438 498.344 91.3438 497.406 90.8438C496.531 90.2812 495.906 89.7188 495.531 89.1562C495.281 88.8438 495.125 88.4375 495.062 87.9375C495.062 87.375 494.938 86.8438 494.688 86.3438C494.562 85.9062 494.344 85.5312 494.031 85.2188C493.719 84.9062 493.531 84.5938 493.469 84.2812C493.281 83.4062 493.375 82.4375 493.75 81.375C494.125 80.3125 494.469 79.4062 494.781 78.6562C495.969 78.4688 496.938 78.5938 497.688 79.0312C498.5 79.4062 499.188 79.9375 499.75 80.625C500.312 81.3125 500.812 82.0938 501.25 82.9688C501.688 83.7812 502.125 84.5 502.562 85.125C503.062 85.9375 503.844 86.5625 504.906 87C505.969 87.4375 507 87.875 508 88.3125C508.375 88.5 508.719 88.6875 509.031 88.875C509.406 89 509.75 89.125 510.062 89.25C510.875 89.5625 511.562 89.9062 512.125 90.2812C512.75 90.5938 513.406 90.7812 514.094 90.8438C514.719 90.8438 515.312 90.8125 515.875 90.75C516.5 90.625 517.188 90.5 517.938 90.375C518.688 90.125 519.438 90.0312 520.188 90.0938C520.938 90.0938 521.656 89.9375 522.344 89.625C523.156 89.3125 523.625 88.9375 523.75 88.5C523.875 88.0625 524.156 87.4688 524.594 86.7188C524.344 85.5312 524.062 84.6875 523.75 84.1875C523.438 83.6875 522.875 83.0938 522.062 82.4062C521.75 82.1562 521.375 81.9688 520.938 81.8438C520.562 81.6562 520.219 81.4688 519.906 81.2812C518.594 80.4688 517.156 79.6562 515.594 78.8438C514.031 78.0312 512.312 77.4688 510.438 77.1562C509.25 76.7812 508 76.2812 506.688 75.6562C505.438 74.9688 504.531 74.0625 503.969 72.9375C503.781 72.6875 503.656 72.4375 503.594 72.1875C503.594 71.9375 503.531 71.6562 503.406 71.3438C502.906 70.0938 502.188 68.9062 501.25 67.7812C500.375 66.6562 499.781 65.375 499.469 63.9375C499.344 63.5 499.312 63.0625 499.375 62.625C499.438 62.125 499.5 61.6562 499.562 61.2188C499.688 60.7812 499.781 60.3125 499.844 59.8125C499.906 59.3125 499.875 58.7812 499.75 58.2188C500 57.9688 500.156 57.7188 500.219 57.4688C500.281 57.2188 500.375 56.9688 500.5 56.7188C500.75 56.3438 500.906 55.9688 500.969 55.5938C501.094 55.1562 501.375 54.75 501.812 54.375C502.25 54 502.594 53.625 502.844 53.25C503.156 52.8125 503.469 52.4688 503.781 52.2188C503.969 52.0938 504.188 52.0312 504.438 52.0312C504.688 51.9688 504.906 51.875 505.094 51.75C505.406 51.5625 505.688 51.3438 505.938 51.0938C506.188 50.7812 506.469 50.5 506.781 50.25C508.031 49.3125 509.438 48.5312 511 47.9062C512.562 47.2188 514.156 46.6875 515.781 46.3125C516.031 46 516.438 45.75 517 45.5625C517.562 45.3125 518.156 45.1562 518.781 45.0938C519.469 44.9688 520.125 44.875 520.75 44.8125C521.375 44.75 521.906 44.6875 522.344 44.625C524.281 44.875 525.812 45.1875 526.938 45.5625C528.125 45.9375 529.219 46.3438 530.219 46.7812C531.281 47.1562 532.406 47.5312 533.594 47.9062C534.781 48.2812 536.312 48.5938 538.188 48.8438C538.938 49.4062 539.719 50.0938 540.531 50.9062C541.406 51.6562 542.156 52.5 542.781 53.4375C543.406 54.375 543.844 55.375 544.094 56.4375C544.406 57.4375 544.344 58.4688 543.906 59.5312C543.594 60.1562 543.344 60.875 543.156 61.6875C542.969 62.4375 542.688 63.125 542.312 63.75C542 64.25 541.656 64.8438 541.281 65.5312C540.969 66.2188 540.594 66.7812 540.156 67.2188C539.281 68.0938 538.156 68.7188 536.781 69.0938C535.406 69.4688 534.062 69.5938 532.75 69.4688C532.375 68.8438 531.781 68.3125 530.969 67.875C530.219 67.4375 529.438 67 528.625 66.5625C527.875 66.0625 527.156 65.5312 526.469 64.9688C525.844 64.3438 525.438 63.5938 525.25 62.7188C525.062 61.6562 525.094 60.5312 525.344 59.3438C525.656 58.1562 526.344 57.3125 527.406 56.8125Z" fill="#C74DF2"/>
<path d="M2.22 55.04C1.94 54.6 1.68 54 1.44 53.24C1.2 52.48 1.08 51.68 1.08 50.84C1.08 49.28 1.42 48.16 2.1 47.48C2.82 46.8 3.74 46.46 4.86 46.46H31.02C31.3 46.9 31.56 47.5 31.8 48.26C32.04 49.02 32.16 49.82 32.16 50.66C32.16 52.22 31.8 53.34 31.08 54.02C30.4 54.7 29.5 55.04 28.38 55.04H21.72V82.76C21.28 82.88 20.58 83 19.62 83.12C18.7 83.24 17.78 83.3 16.86 83.3C15.94 83.3 15.12 83.22 14.4 83.06C13.72 82.94 13.14 82.7 12.66 82.34C12.18 81.98 11.82 81.48 11.58 80.84C11.34 80.2 11.22 79.36 11.22 78.32V55.04H2.22ZM71.8598 69.56C71.8598 71.72 71.4798 73.7 70.7198 75.5C69.9998 77.26 68.9398 78.78 67.5398 80.06C66.1398 81.3 64.4398 82.26 62.4398 82.94C60.4398 83.62 58.1798 83.96 55.6598 83.96C53.1398 83.96 50.8798 83.62 48.8798 82.94C46.8798 82.26 45.1798 81.3 43.7798 80.06C42.3798 78.78 41.2998 77.26 40.5398 75.5C39.8198 73.7 39.4598 71.72 39.4598 69.56V46.64C39.8998 46.56 40.5998 46.46 41.5598 46.34C42.5198 46.18 43.4398 46.1 44.3198 46.1C45.2398 46.1 46.0398 46.18 46.7198 46.34C47.4398 46.46 48.0398 46.7 48.5198 47.06C48.9998 47.42 49.3598 47.92 49.5998 48.56C49.8398 49.2 49.9598 50.04 49.9598 51.08V69.38C49.9598 71.3 50.4798 72.8 51.5198 73.88C52.5998 74.96 53.9798 75.5 55.6598 75.5C57.3798 75.5 58.7598 74.96 59.7998 73.88C60.8398 72.8 61.3598 71.3 61.3598 69.38V46.64C61.7998 46.56 62.4998 46.46 63.4598 46.34C64.4198 46.18 65.3398 46.1 66.2198 46.1C67.1398 46.1 67.9398 46.18 68.6198 46.34C69.3398 46.46 69.9398 46.7 70.4198 47.06C70.8998 47.42 71.2598 47.92 71.4998 48.56C71.7398 49.2 71.8598 50.04 71.8598 51.08V69.56ZM114.824 81.74C114.264 82.3 113.444 82.72 112.364 83C111.324 83.32 110.064 83.48 108.584 83.48C107.104 83.48 105.704 83.26 104.384 82.82C103.064 82.38 101.984 81.32 101.144 79.64L95.2036 67.52C94.6036 66.28 94.0636 65.12 93.5836 64.04C93.1036 62.92 92.5836 61.64 92.0236 60.2L91.6636 60.26C91.8236 62.42 91.9036 64.62 91.9036 66.86C91.9436 69.1 91.9636 71.3 91.9636 73.46V82.76C91.5236 82.88 90.8436 83 89.9236 83.12C89.0436 83.24 88.1636 83.3 87.2836 83.3C86.4036 83.3 85.6236 83.24 84.9436 83.12C84.2636 83 83.7036 82.76 83.2636 82.4C82.8236 82.04 82.4836 81.56 82.2436 80.96C82.0036 80.32 81.8836 79.5 81.8836 78.5V48.5C82.4436 47.7 83.3036 47.1 84.4636 46.7C85.6236 46.3 86.8636 46.1 88.1836 46.1C89.6636 46.1 91.0636 46.34 92.3836 46.82C93.7436 47.26 94.8236 48.3 95.6236 49.94L101.624 62.06C102.224 63.3 102.764 64.48 103.244 65.6C103.724 66.68 104.244 67.94 104.804 69.38L105.104 69.32C104.944 67.16 104.844 65 104.804 62.84C104.764 60.68 104.744 58.52 104.744 56.36V46.64C105.184 46.52 105.844 46.4 106.724 46.28C107.644 46.16 108.544 46.1 109.424 46.1C111.184 46.1 112.524 46.42 113.444 47.06C114.364 47.66 114.824 48.94 114.824 50.9V81.74ZM157.946 81.74C157.386 82.3 156.566 82.72 155.486 83C154.446 83.32 153.186 83.48 151.706 83.48C150.226 83.48 148.826 83.26 147.506 82.82C146.186 82.38 145.106 81.32 144.266 79.64L138.326 67.52C137.726 66.28 137.186 65.12 136.706 64.04C136.226 62.92 135.706 61.64 135.146 60.2L134.786 60.26C134.946 62.42 135.026 64.62 135.026 66.86C135.066 69.1 135.086 71.3 135.086 73.46V82.76C134.646 82.88 133.966 83 133.046 83.12C132.166 83.24 131.286 83.3 130.406 83.3C129.526 83.3 128.746 83.24 128.066 83.12C127.386 83 126.826 82.76 126.386 82.4C125.946 82.04 125.606 81.56 125.366 80.96C125.126 80.32 125.006 79.5 125.006 78.5V48.5C125.566 47.7 126.426 47.1 127.586 46.7C128.746 46.3 129.986 46.1 131.306 46.1C132.786 46.1 134.186 46.34 135.506 46.82C136.866 47.26 137.946 48.3 138.746 49.94L144.746 62.06C145.346 63.3 145.886 64.48 146.366 65.6C146.846 66.68 147.366 67.94 147.926 69.38L148.226 69.32C148.066 67.16 147.966 65 147.926 62.84C147.886 60.68 147.866 58.52 147.866 56.36V46.64C148.306 46.52 148.966 46.4 149.846 46.28C150.766 46.16 151.666 46.1 152.546 46.1C154.306 46.1 155.646 46.42 156.566 47.06C157.486 47.66 157.946 48.94 157.946 50.9V81.74ZM168.129 52.22C168.129 50.5 168.629 49.14 169.629 48.14C170.629 47.14 171.989 46.64 173.709 46.64H193.509C193.789 47.08 194.029 47.66 194.229 48.38C194.469 49.1 194.589 49.86 194.589 50.66C194.589 52.18 194.249 53.26 193.569 53.9C192.929 54.54 192.069 54.86 190.989 54.86H178.329V60.44H191.829C192.109 60.88 192.349 61.46 192.549 62.18C192.789 62.86 192.909 63.6 192.909 64.4C192.909 65.92 192.589 67 191.949 67.64C191.309 68.28 190.449 68.6 189.369 68.6H178.329V74.9H193.749C194.029 75.34 194.269 75.92 194.469 76.64C194.709 77.36 194.829 78.12 194.829 78.92C194.829 80.44 194.489 81.54 193.809 82.22C193.169 82.86 192.309 83.18 191.229 83.18H173.709C171.989 83.18 170.629 82.68 169.629 81.68C168.629 80.68 168.129 79.32 168.129 77.6V52.22ZM208.98 83.18C207.26 83.18 205.9 82.68 204.9 81.68C203.9 80.68 203.4 79.32 203.4 77.6V46.58C203.84 46.5 204.54 46.4 205.5 46.28C206.46 46.12 207.38 46.04 208.26 46.04C209.18 46.04 209.98 46.12 210.66 46.28C211.38 46.4 211.98 46.64 212.46 47C212.94 47.36 213.3 47.86 213.54 48.5C213.78 49.14 213.9 49.98 213.9 51.02V74.72H227.64C227.92 75.16 228.18 75.76 228.42 76.52C228.66 77.24 228.78 78 228.78 78.8C228.78 80.4 228.44 81.54 227.76 82.22C227.08 82.86 226.18 83.18 225.06 83.18H208.98Z" fill="#C74DF2"/>
</svg>
